<svg width="20" height="12" viewBox="0 0 20 12" fill="none" xmlns="http://www.w3.org/2000/svg">
<g clip-path="url(#clip0)">
<path d="M19.6522 0.827108C19.5842 0.780213 19.5037 0.755096 19.4211 0.755096C19.3386 0.755096 19.258 0.780213 19.1901 0.827108L14.6987 3.53485V2.46746C14.7212 1.83732 14.4932 1.22392 14.0646 0.761491C13.6359 0.299062 13.0415 0.0252601 12.4115 0L2.24592 0C1.62404 0.031161 1.03951 0.30623 0.619121 0.765548C0.198727 1.22487 -0.0236397 1.8314 0.000247044 2.4536V9.51867C-0.0159244 9.83103 0.0297606 10.1435 0.134679 10.4382C0.239598 10.7328 0.401684 11.0038 0.611631 11.2357C0.821578 11.4675 1.07525 11.6556 1.35809 11.7892C1.64092 11.9227 1.94735 11.9991 2.25978 12.0139H12.4254C13.0566 11.985 13.651 11.7082 14.0793 11.2436C14.5076 10.779 14.7352 10.1641 14.7126 9.53254V8.45129L19.227 11.1683C19.2934 11.2059 19.368 11.2265 19.4442 11.2283C19.5235 11.2287 19.601 11.2045 19.666 11.159C19.7352 11.1123 19.7913 11.0488 19.8293 10.9744C19.8673 10.9001 19.8858 10.8174 19.8832 10.7339V1.25221C19.8842 1.16906 19.8649 1.08691 19.8271 1.01286C19.7892 0.938798 19.734 0.875051 19.666 0.827108H19.6522ZM12.4115 10.9927H2.24592C1.87823 10.9666 1.53502 10.7988 1.28853 10.5248C1.04204 10.2507 0.911497 9.89168 0.92439 9.5233V2.46746C0.908046 2.09467 1.03973 1.73052 1.29074 1.45441C1.54175 1.1783 1.89174 1.01261 2.2644 0.993454H12.43C12.8091 1.00553 13.168 1.16749 13.4279 1.44383C13.6877 1.72016 13.8274 2.08829 13.8162 2.46746V9.51867C13.8287 9.89953 13.6899 10.2698 13.4301 10.5487C13.1703 10.8275 12.8108 10.9921 12.43 11.0065L12.4115 10.9927ZM18.9452 9.89295L14.6803 7.31921V4.66692L18.9452 2.09318V9.89295Z" fill="#FAFAFA"/>
</g>
<defs>
<clipPath id="clip0">
<rect width="19.8691" height="12" fill="white"/>
</clipPath>
</defs>
</svg>
