<svg width="13" height="12" viewBox="0 0 13 12" fill="none" xmlns="http://www.w3.org/2000/svg">
<g clip-path="url(#clip0)">
<path d="M12.6461 1.81369L11.0349 0.326479C10.8206 0.130299 10.5312 0.0200296 10.2294 0.0195941V0.0195941C10.0796 0.0180648 9.93109 0.0444576 9.79267 0.0971905C9.65425 0.149924 9.52878 0.227911 9.42379 0.326479L1.20609 7.91205C1.15117 7.97265 1.11182 8.04394 1.09101 8.12058L0.033957 11.5357C0.015415 11.5956 0.0147352 11.659 0.0319892 11.7192C0.0492432 11.7795 0.0837915 11.8343 0.13199 11.878C0.167273 11.9105 0.209149 11.9362 0.255224 11.9538C0.301299 11.9713 0.35067 11.9803 0.400514 11.9803C0.434489 11.984 0.468835 11.984 0.502809 11.9803L4.19822 11.0045C4.28061 10.9807 4.35832 10.9448 4.42838 10.8983L12.6461 3.30091C12.859 3.10333 12.9785 2.83598 12.9785 2.5573C12.9785 2.27862 12.859 2.01127 12.6461 1.81369V1.81369ZM0.954613 11.1186L1.66215 8.82877L3.43527 10.4655L0.954613 11.1186ZM4.15986 10.1429L2.02871 8.17566L8.63527 2.0773L10.7664 4.04451L4.15986 10.1429ZM12.109 2.80517L11.3035 3.54091L9.17232 1.57369L9.97789 0.830086C10.0428 0.764271 10.1331 0.724693 10.2294 0.719922V0.719922C10.2792 0.719635 10.3287 0.728534 10.3748 0.746099C10.4209 0.763664 10.4627 0.789541 10.4979 0.822217L12.109 2.30943C12.1444 2.34196 12.1724 2.38059 12.1915 2.42312C12.2106 2.46566 12.2204 2.51125 12.2204 2.5573C12.2204 2.60335 12.2106 2.64894 12.1915 2.69147C12.1724 2.73401 12.1444 2.77264 12.109 2.80517V2.80517Z" fill="#294F75"/>
<path d="M0.400433 12C0.293651 11.9976 0.191734 11.9583 0.114859 11.8899C0.0614821 11.8451 0.0224999 11.7877 0.00219712 11.7238C-0.0181056 11.6599 -0.0189429 11.5922 -0.000222641 11.5279L1.05256 8.11674C1.07168 8.0407 1.11126 7.97034 1.16765 7.91216L9.40666 0.310845C9.62551 0.110835 9.92132 -0.000936102 10.2293 2.49314e-05C10.3816 -0.000945544 10.5326 0.0264257 10.6732 0.0805044C10.8138 0.134583 10.9411 0.21426 11.0476 0.314779L12.6588 1.80199C12.767 1.90079 12.853 2.01843 12.9116 2.14809C12.9703 2.27776 13.0005 2.41688 13.0005 2.5574C13.0005 2.69792 12.9703 2.83704 12.9116 2.96671C12.853 3.09638 12.767 3.21402 12.6588 3.31281L4.44535 10.8984C4.37105 10.9475 4.28914 10.986 4.2024 11.0125L0.511253 11.9843C0.475545 11.9953 0.438072 12.0006 0.400433 12V12ZM10.2293 0.0354348C10.0821 0.0354028 9.93628 0.0621406 9.80025 0.114121C9.66422 0.166102 9.54062 0.242307 9.4365 0.338386L1.21879 7.92396C1.16818 7.97806 1.13301 8.04297 1.1165 8.11281V8.11281L0.0551872 11.5397C0.0374716 11.5966 0.0364229 11.6568 0.0521481 11.7141C0.0678733 11.7715 0.0998091 11.824 0.144695 11.8663C0.190943 11.907 0.247821 11.936 0.309808 11.9505C0.371796 11.965 0.436785 11.9644 0.498466 11.9489L4.19388 10.9771C4.27262 10.9528 4.34725 10.9184 4.41552 10.8748L12.6332 3.2892C12.8404 3.09364 12.9565 2.83096 12.9565 2.5574C12.9565 2.28384 12.8404 2.02116 12.6332 1.8256L11.0178 0.338386C10.9145 0.242427 10.7916 0.166265 10.6563 0.114274C10.521 0.0622839 10.3759 0.0354908 10.2293 0.0354348V0.0354348ZM0.924696 11.1463L1.65355 8.7856L3.47355 10.4656L0.924696 11.1463ZM1.6706 8.86429L0.984368 11.0912L3.40961 10.4538L1.6706 8.86429ZM4.15978 10.1705L1.98174 8.16002L8.61814 2.03412L10.7919 4.04461L4.15978 10.1705ZM2.02863 8.16002L4.15978 10.1272L10.7365 4.04461L8.60535 2.0774L2.02863 8.16002ZM11.3034 3.57642L9.12535 1.5738L9.94371 0.818385C10.0193 0.747045 10.1213 0.704856 10.2293 0.700353C10.2818 0.700401 10.3337 0.710176 10.382 0.729099C10.4304 0.748023 10.4741 0.775709 10.5106 0.810517L12.1217 2.29773C12.1594 2.33147 12.1893 2.37183 12.2097 2.41644C12.2302 2.46104 12.2407 2.50897 12.2407 2.5574C12.2407 2.60583 12.2302 2.65376 12.2097 2.69837C12.1893 2.74297 12.1594 2.78334 12.1217 2.81707L11.3034 3.57642ZM9.18076 1.5738L11.3119 3.54101L12.0962 2.79347C12.1295 2.76243 12.1557 2.72555 12.1732 2.685C12.1908 2.64445 12.1994 2.60106 12.1985 2.5574C12.1976 2.46966 12.1611 2.38541 12.0962 2.32134L10.4808 0.834123C10.4479 0.803514 10.4087 0.779365 10.3655 0.763136C10.3223 0.746906 10.2759 0.738933 10.2293 0.739697C10.182 0.738852 10.135 0.746773 10.0911 0.762992C10.0471 0.779211 10.0072 0.803399 9.97355 0.834123L9.18076 1.5738Z" fill="#294F75"/>
</g>
<defs>
<clipPath id="clip0">
<rect width="13" height="12" fill="white"/>
</clipPath>
</defs>
</svg>
