<svg width="18" height="14" viewBox="0 0 18 14" fill="none" xmlns="http://www.w3.org/2000/svg">
<path d="M16.3125 0.25H1.68751C0.75696 0.25 0 1.00696 0 1.93751V12.0625C0 12.9931 0.75696 13.75 1.68751 13.75H16.3125C17.243 13.75 18 12.9931 18 12.0625V1.93751C18 1.00696 17.243 0.25 16.3125 0.25ZM16.3125 1.375C16.3889 1.375 16.4616 1.39085 16.5281 1.41854L9 7.94319L1.47188 1.41854C1.53834 1.39089 1.61105 1.375 1.68747 1.375H16.3125ZM16.3125 12.625H1.68751C1.37715 12.625 1.125 12.3729 1.125 12.0625V2.60711L8.6314 9.11267C8.73743 9.20439 8.86872 9.25 9 9.25C9.13128 9.25 9.26256 9.20442 9.3686 9.11267L16.875 2.60711V12.0625C16.875 12.3729 16.6228 12.625 16.3125 12.625Z" fill="#D23A3A"/>
</svg>
