<svg width="21" height="18" viewBox="0 0 21 18" fill="none" xmlns="http://www.w3.org/2000/svg">
<g clip-path="url(#clip0)">
<path d="M1.43355 15.3491C1.30679 15.348 1.18553 15.2972 1.09589 15.2075C1.00624 15.1179 0.955396 14.9966 0.954288 14.8699V1.4335C0.955396 1.30673 1.00624 1.18547 1.09589 1.09583C1.18553 1.00619 1.30679 0.955342 1.43355 0.954235H8.59708V1.94669H9.55137V1.13661L10.3996 1.94669H11.7908L10.1791 0.394386C9.90743 0.135495 9.54486 -0.0061809 9.16965 -5.33417e-05H1.43355C1.0537 0.00106554 0.689715 0.152459 0.421114 0.421061C0.152513 0.689662 0.00111888 1.05364 0 1.4335L0 14.8699C0 15.2501 0.151035 15.6147 0.419878 15.8836C0.688721 16.1524 1.05335 16.3034 1.43355 16.3034H4.66541V15.3491H1.43355Z" fill="#FAFAFA"/>
<path d="M19.6077 7.73607C19.4644 7.61526 19.2986 7.52391 19.1199 7.46726C18.9413 7.41061 18.7532 7.38976 18.5664 7.40591C18.3797 7.42207 18.1979 7.4749 18.0316 7.56139C17.8654 7.64789 17.7178 7.76634 17.5973 7.90996L16.2359 9.5174V4.85199C16.2349 4.65844 16.1949 4.46706 16.1184 4.28927C16.0419 4.11147 15.9304 3.9509 15.7905 3.81712L13.9965 2.09092C13.7248 1.83203 13.3622 1.69035 12.987 1.69648H5.25094C4.87108 1.6976 4.5071 1.84899 4.2385 2.11759C3.9699 2.3862 3.8185 2.75018 3.81738 3.13003V16.5664C3.81738 16.7547 3.85446 16.9411 3.92651 17.115C3.99855 17.2889 4.10414 17.447 4.23726 17.5801C4.37038 17.7132 4.52841 17.8188 4.70234 17.8908C4.87627 17.9629 5.06268 18 5.25094 18H14.8023C14.9906 18 15.177 17.9629 15.3509 17.8908C15.5248 17.8188 15.6829 17.7132 15.816 17.5801C15.9491 17.447 16.0547 17.2889 16.1267 17.115C16.1988 16.9411 16.2359 16.7547 16.2359 16.5664V13.958L19.7858 9.75492C19.9071 9.61087 19.9988 9.44427 20.0556 9.26468C20.1123 9.0851 20.133 8.89607 20.1164 8.70846C20.0999 8.52085 20.0464 8.33837 19.9591 8.17149C19.8718 8.00461 19.7524 7.85664 19.6077 7.73607V7.73607ZM13.3688 2.83314C15.2816 4.64841 15.1458 4.52966 15.1798 4.56359H13.3688V2.83314ZM15.2688 16.5664C15.2677 16.6932 15.2169 16.8144 15.1272 16.9041C15.0376 16.9937 14.9163 17.0446 14.7896 17.0457H5.25094C5.12417 17.0446 5.00291 16.9937 4.91327 16.9041C4.82363 16.8144 4.77278 16.6932 4.77167 16.5664V3.13003C4.77278 3.00327 4.82363 2.88201 4.91327 2.79237C5.00291 2.70272 5.12417 2.65188 5.25094 2.65077H12.4145V5.03861C12.4156 5.16498 12.4666 5.2858 12.5563 5.37476C12.6461 5.46373 12.7673 5.51364 12.8937 5.51363H15.2688V10.6456L13.2373 13.0462C13.0947 13.2175 12.9931 13.4191 12.9404 13.6357L12.5163 15.4934C12.4958 15.5776 12.4987 15.6658 12.5248 15.7485C12.5509 15.8311 12.5991 15.9051 12.6642 15.9623C12.7293 16.0195 12.8088 16.0579 12.8941 16.0731C12.9794 16.0884 13.0673 16.0801 13.1482 16.049L14.8999 15.2898C15.0315 15.2308 15.1543 15.1537 15.2646 15.0608L15.2688 16.5664ZM14.1322 13.4745L14.8659 14.0853L14.7005 14.2804C14.6533 14.3369 14.5938 14.3818 14.5266 14.4118L13.6487 14.7893L13.8692 13.8605C13.886 13.7887 13.9194 13.7219 13.9668 13.6654L14.1322 13.4745ZM15.4809 13.3558L14.7599 12.745L17.3895 9.61919L18.119 10.2299L15.4809 13.3558ZM19.0436 9.13993L18.734 9.50044L18.0172 8.90666L18.3268 8.54191C18.3669 8.49393 18.416 8.45433 18.4714 8.42537C18.5267 8.39641 18.5873 8.37867 18.6495 8.37315C18.7118 8.36764 18.7745 8.37446 18.8341 8.39323C18.8937 8.412 18.9491 8.44234 18.9969 8.48253C19.0883 8.56419 19.1452 8.67749 19.1563 8.79952C19.1673 8.92156 19.1316 9.04322 19.0563 9.13993H19.0436Z" fill="#FAFAFA"/>
</g>
<defs>
<clipPath id="clip0">
<rect width="20.1206" height="18" fill="white"/>
</clipPath>
</defs>
</svg>
