<svg width="20" height="18" viewBox="0 0 20 18" fill="none" xmlns="http://www.w3.org/2000/svg">
<path d="M2.41273 17.7713C2.0329 17.7713 1.66451 17.7103 1.31696 17.59L0.525513 17.3162L1.13365 16.7403C1.93858 15.9781 2.14171 15.099 2.15493 14.4405C0.763735 12.898 1.08059e-08 10.9737 1.08059e-08 9.00002C-0.000254229 4.16362 4.4858 0.22876 9.99975 0.22876C15.5137 0.22876 20 4.16362 20 9.00002C20 13.8362 15.5137 17.7708 9.99975 17.7708C8.35812 17.7708 6.73862 17.4151 5.2953 16.7393C4.75148 17.1245 3.65291 17.7713 2.41273 17.7713ZM5.17606 15.5454L5.46793 15.6931C6.84006 16.3869 8.40719 16.7541 9.99949 16.7541C14.9528 16.7541 18.9828 13.2756 18.9828 9.00028C18.9828 4.72448 14.9528 1.24597 9.99949 1.24597C5.04614 1.24597 1.01645 4.72448 1.01645 9.00002C1.01645 10.7769 1.73188 12.5141 3.0313 13.8913L3.1635 14.0314L3.1696 14.2239C3.19198 14.9152 3.06791 15.8525 2.45341 16.7538C3.63105 16.735 4.7136 15.9153 4.92055 15.7498L5.17606 15.5454Z" fill="#E6CF00"/>
<path d="M5.1497 11.399C4.77673 11.399 4.47394 11.3698 4.24004 11.311C4.00664 11.2528 3.8452 11.1928 3.75647 11.1318C3.7341 11.1094 3.72571 11.0583 3.73105 10.9775C3.73639 10.8974 3.7491 10.8135 3.76867 10.7276C3.788 10.6416 3.81317 10.5643 3.84368 10.4985C3.87418 10.4319 3.90317 10.4009 3.93139 10.4067C4.07605 10.4568 4.23317 10.5056 4.40275 10.5526C4.57233 10.5997 4.78792 10.6233 5.04928 10.6233C5.31649 10.6233 5.54276 10.5849 5.72962 10.5066C5.91573 10.4286 6.00929 10.2895 6.00929 10.0894C6.00929 9.91629 5.94776 9.7762 5.82547 9.66789C5.70318 9.55959 5.48327 9.44391 5.16623 9.32213C4.9936 9.25476 4.83114 9.18128 4.67809 9.10043C4.52478 9.02009 4.39029 8.92526 4.27334 8.8167C4.15639 8.70839 4.06486 8.57899 3.998 8.42899C3.93113 8.27899 3.89757 8.10076 3.89757 7.89483C3.89757 7.72805 3.92986 7.5694 3.99368 7.41915C4.05749 7.26889 4.15639 7.13948 4.28987 7.03118C4.42334 6.92287 4.59445 6.83643 4.80318 6.77262C5.01191 6.70855 5.26081 6.67651 5.55013 6.67651C5.73903 6.67651 5.89641 6.68084 6.02149 6.68897C6.14658 6.69736 6.24929 6.70855 6.33039 6.72253C6.41073 6.73651 6.47633 6.75177 6.52641 6.76855C6.5765 6.78533 6.62378 6.79906 6.66828 6.81024C6.70718 6.82677 6.72675 6.87558 6.72675 6.95618C6.72675 7.03677 6.71531 7.12296 6.69319 7.21499C6.67107 7.30652 6.64031 7.38737 6.60167 7.45677C6.56251 7.52644 6.52361 7.55567 6.48472 7.54449C6.39014 7.51678 6.26073 7.48627 6.09675 7.45296C5.93251 7.4194 5.77285 7.40288 5.617 7.40288C5.29971 7.40288 5.08157 7.44762 4.96208 7.53635C4.84233 7.62534 4.78258 7.74483 4.78258 7.89508C4.78258 8.05652 4.84945 8.18593 4.98292 8.28305C5.1164 8.38017 5.32513 8.47907 5.60861 8.57924C6.05912 8.75721 6.39166 8.96162 6.60573 9.19247C6.8198 9.42332 6.92709 9.71391 6.92709 10.0645C6.92709 10.3261 6.87701 10.5432 6.77709 10.7159C6.67667 10.8882 6.54319 11.0248 6.37641 11.1242C6.20963 11.2249 6.01895 11.2955 5.80488 11.3372C5.59056 11.3782 5.37216 11.399 5.1497 11.399Z" fill="#E6CF00"/>
<path d="M11.1658 11.3573C11.0491 11.3573 10.9726 11.338 10.9368 11.2988C10.9001 11.2602 10.8826 11.1852 10.8826 11.0733V8.15289C10.6601 8.51441 10.4885 8.79382 10.3688 8.99137C10.2488 9.18917 10.1621 9.33383 10.1062 9.42561C10.0505 9.51688 10.0169 9.57154 10.0055 9.58807C9.99454 9.60485 9.98946 9.61629 9.98946 9.62188C9.93963 9.70527 9.90454 9.75942 9.88522 9.78459C9.86539 9.81027 9.82497 9.82197 9.76395 9.82197H9.63047C9.55827 9.82197 9.51072 9.80951 9.48861 9.78459C9.46649 9.75942 9.43293 9.70527 9.38844 9.62188L8.53724 8.17017V11.1242C8.53724 11.1966 8.52478 11.2538 8.49961 11.2955C8.4747 11.3372 8.40936 11.3581 8.3036 11.3581H7.95351C7.87546 11.3581 7.80757 11.3456 7.74885 11.3205C7.69062 11.2955 7.66113 11.2137 7.66113 11.0741V7.06855C7.66113 6.9572 7.68198 6.88347 7.72368 6.84737C7.76537 6.81126 7.82512 6.79321 7.90317 6.79321H8.32038C8.38139 6.79321 8.433 6.80135 8.4747 6.81813C8.51639 6.83491 8.55936 6.8766 8.60411 6.94321L9.71361 8.71221L10.8234 6.95999C10.8569 6.89872 10.8968 6.85576 10.9449 6.83059C10.9924 6.80542 11.0377 6.79321 11.0824 6.79321H11.5416C11.6474 6.79321 11.7081 6.81533 11.7254 6.85982C11.7422 6.90457 11.7503 6.97677 11.7503 7.07694V11.115C11.7503 11.1984 11.7394 11.2599 11.717 11.2991C11.6946 11.3383 11.6306 11.3573 11.5253 11.3573H11.1658Z" fill="#E6CF00"/>
<path d="M13.9446 11.399C13.5714 11.399 13.2689 11.3698 13.035 11.311C12.8016 11.2528 12.6399 11.1928 12.5514 11.1318C12.529 11.1094 12.5206 11.0583 12.526 10.9775C12.5313 10.8974 12.5435 10.8135 12.5633 10.7276C12.5827 10.6416 12.6076 10.5643 12.6383 10.4985C12.6686 10.4316 12.6976 10.4009 12.7261 10.4067C12.8707 10.4568 13.0281 10.5056 13.1974 10.5526C13.3667 10.5999 13.5823 10.6233 13.8439 10.6233C14.1112 10.6233 14.3372 10.5849 14.5243 10.5066C14.7101 10.4286 14.8042 10.2895 14.8042 10.0894C14.8042 9.91629 14.7427 9.7762 14.6201 9.66789C14.4976 9.55959 14.2779 9.44391 13.9606 9.32213C13.788 9.25476 13.6258 9.18128 13.4725 9.10043C13.3192 9.02009 13.1847 8.92526 13.0675 8.8167C12.9508 8.70839 12.8593 8.57899 12.7924 8.42899C12.7253 8.27873 12.692 8.10076 12.692 7.89483C12.692 7.72805 12.7243 7.5694 12.7878 7.41915C12.8519 7.26889 12.9508 7.13948 13.0843 7.03118C13.2178 6.92287 13.3886 6.83643 13.5973 6.77262C13.8063 6.70855 14.0555 6.67651 14.3443 6.67651C14.5334 6.67651 14.6908 6.68084 14.8156 6.68897C14.9407 6.69736 15.0434 6.70855 15.1248 6.72253C15.2049 6.73651 15.2705 6.75177 15.3208 6.76855C15.3707 6.78507 15.4182 6.79906 15.4629 6.81024C15.5016 6.82677 15.5212 6.87558 15.5212 6.95618C15.5212 7.03677 15.5097 7.12296 15.4874 7.21499C15.4655 7.30652 15.4347 7.38737 15.3963 7.45677C15.3572 7.52644 15.318 7.55567 15.2791 7.54449C15.1848 7.51678 15.0549 7.48627 14.8914 7.45296C14.7272 7.4194 14.5673 7.40288 14.4117 7.40288C14.0944 7.40288 13.876 7.44762 13.7567 7.53635C13.637 7.62534 13.577 7.74483 13.577 7.89508C13.577 8.05652 13.6441 8.18593 13.7776 8.28305C13.9108 8.38017 14.1198 8.47907 14.4033 8.57924C14.8535 8.75721 15.1863 8.96162 15.4004 9.19247C15.6145 9.42332 15.7218 9.71391 15.7218 10.0645C15.7218 10.3261 15.6717 10.5432 15.5718 10.7159C15.4713 10.8882 15.3379 11.0248 15.1711 11.1242C15.0043 11.2249 14.8136 11.2955 14.5995 11.3372C14.3847 11.3782 14.1671 11.399 13.9446 11.399Z" fill="#E6CF00"/>
</svg>
