<svg width="18" height="12" viewBox="0 0 18 12" fill="none" xmlns="http://www.w3.org/2000/svg">
<g clip-path="url(#clip0)">
<path d="M4.24059 1.90666H16.4715C16.6818 1.89897 16.8805 1.80832 17.0242 1.65454C17.1678 1.50076 17.2448 1.29635 17.2381 1.08602C17.2448 0.875685 17.1678 0.671279 17.0242 0.517498C16.8805 0.363716 16.6818 0.27307 16.4715 0.265381H4.24059C4.03116 0.274333 3.83371 0.365529 3.69111 0.519172C3.5485 0.672814 3.47226 0.876503 3.47892 1.08602C3.47226 1.29554 3.5485 1.49923 3.69111 1.65287C3.83371 1.80651 4.03116 1.89771 4.24059 1.90666Z" fill="#FAFAFA"/>
<path d="M4.24056 6.82072H16.4715C16.6892 6.82072 16.8979 6.73426 17.0518 6.58036C17.2057 6.42646 17.2922 6.21773 17.2922 6.00008C17.2922 5.78244 17.2057 5.5737 17.0518 5.4198C16.8979 5.2659 16.6892 5.17944 16.4715 5.17944H4.24056C4.02291 5.17944 3.81418 5.2659 3.66028 5.4198C3.50638 5.5737 3.41992 5.78244 3.41992 6.00008C3.41992 6.21773 3.50638 6.42646 3.66028 6.58036C3.81418 6.73426 4.02291 6.82072 4.24056 6.82072Z" fill="#FAFAFA"/>
<path d="M4.24056 11.7345H16.4715C16.6892 11.7345 16.8979 11.6481 17.0518 11.4942C17.2057 11.3403 17.2922 11.1315 17.2922 10.9139C17.2922 10.6963 17.2057 10.4875 17.0518 10.3336C16.8979 10.1797 16.6892 10.0933 16.4715 10.0933H4.24056C4.02291 10.0933 3.81418 10.1797 3.66028 10.3336C3.50638 10.4875 3.41992 10.6963 3.41992 10.9139C3.41992 11.1315 3.50638 11.3403 3.66028 11.4942C3.81418 11.6481 4.02291 11.7345 4.24056 11.7345Z" fill="#FAFAFA"/>
<path d="M1.08599 2.17199C1.68577 2.17199 2.17199 1.68577 2.17199 1.086C2.17199 0.486217 1.68577 0 1.08599 0C0.486216 0 0 0.486217 0 1.086C0 1.68577 0.486216 2.17199 1.08599 2.17199Z" fill="#FAFAFA"/>
<path d="M1.08599 7.08605C1.68577 7.08605 2.17199 6.59984 2.17199 6.00006C2.17199 5.40028 1.68577 4.91406 1.08599 4.91406C0.486216 4.91406 0 5.40028 0 6.00006C0 6.59984 0.486216 7.08605 1.08599 7.08605Z" fill="#FAFAFA"/>
<path d="M1.08599 12.0001C1.68577 12.0001 2.17199 11.5139 2.17199 10.9141C2.17199 10.3143 1.68577 9.82812 1.08599 9.82812C0.486216 9.82812 0 10.3143 0 10.9141C0 11.5139 0.486216 12.0001 1.08599 12.0001Z" fill="#FAFAFA"/>
</g>
<defs>
<clipPath id="clip0">
<rect width="17.2383" height="12" fill="white"/>
</clipPath>
</defs>
</svg>
