<svg width="25" height="25" viewBox="0 0 25 25" fill="none" xmlns="http://www.w3.org/2000/svg">
<path d="M17.5743 7.2676L9.78435 15.7893L7.40846 13.1977C7.25082 13.0328 7.04038 12.9422 6.82233 12.9452C6.60427 12.9483 6.39601 13.0447 6.24225 13.2139C6.0885 13.3831 6.00153 13.6115 6.00002 13.85C5.99851 14.0886 6.08258 14.3183 6.23417 14.4897L9.19721 17.7311C9.27499 17.8167 9.36756 17.8846 9.46953 17.9308C9.57149 17.9769 9.68083 18.0005 9.79118 18C10.0138 17.9993 10.2272 17.9027 10.3852 17.7311L18.7554 8.55967C18.8329 8.47483 18.8945 8.37411 18.9364 8.26326C18.9784 8.15242 19 8.03361 19 7.91363C19 7.79365 18.9784 7.67485 18.9364 7.564C18.8945 7.45315 18.8329 7.35243 18.7554 7.2676C18.6778 7.18276 18.5858 7.11546 18.4844 7.06955C18.3831 7.02363 18.2745 7 18.1648 7C18.0551 7 17.9465 7.02363 17.8452 7.06955C17.7439 7.11546 17.6518 7.18276 17.5743 7.2676Z" fill="#C4C4C4"/>
<path d="M12.5073 2.121e-06C10.0347 -0.00143793 7.61725 0.73045 5.56067 2.10309C3.5041 3.47573 1.90081 5.42746 0.953602 7.71141C0.0063904 9.99536 -0.24219 12.5089 0.239303 14.9342C0.720795 17.3594 1.91073 19.5874 3.6586 21.3363C5.40646 23.0851 7.63374 24.2764 10.0587 24.7593C12.4837 25.2422 14.9974 24.9951 17.2819 24.0492C19.5664 23.1033 21.519 21.5012 22.8929 19.4454C24.2667 17.3896 25 14.9726 25 12.5C24.9962 9.18724 23.679 6.01115 21.3372 3.66799C18.9954 1.32483 15.82 0.00578133 12.5073 2.121e-06ZM12.5073 23.2091C10.3872 23.2105 8.31426 22.5831 6.55085 21.4061C4.78744 20.2291 3.41277 18.5555 2.60077 16.5971C1.78877 14.6386 1.57594 12.4833 1.9892 10.4038C2.40246 8.3244 3.42324 6.41426 4.92239 4.91511C6.42154 3.41596 8.33168 2.39518 10.4111 1.98192C12.4906 1.56865 14.6459 1.78149 16.6043 2.59349C18.5628 3.40548 20.2364 4.78016 21.4134 6.54357C22.5903 8.30698 23.2178 10.3799 23.2164 12.5C23.2125 15.339 22.083 18.0607 20.0755 20.0682C18.068 22.0757 15.3463 23.2052 12.5073 23.2091Z" fill="#C4C4C4"/>
</svg>
