<svg width="31" height="31" viewBox="0 0 31 31" fill="none" xmlns="http://www.w3.org/2000/svg">
<path d="M22.0512 9.10376L11.8275 19.3274L8.70934 16.2182C8.50245 16.0205 8.22626 15.9117 7.94008 15.9154C7.6539 15.919 7.38057 16.0347 7.17878 16.2377C6.97699 16.4407 6.86285 16.7147 6.86087 17.0009C6.85888 17.287 6.96922 17.5626 7.16817 17.7683L11.0569 21.6571C11.159 21.7598 11.2805 21.8412 11.4143 21.8966C11.5482 21.952 11.6916 21.9802 11.8365 21.9797C12.1286 21.9788 12.4087 21.8629 12.616 21.6571L23.6013 10.6539C23.7031 10.5521 23.7838 10.4313 23.8389 10.2983C23.894 10.1653 23.9224 10.0228 23.9224 9.87882C23.9224 9.73488 23.894 9.59234 23.8389 9.45936C23.7838 9.32637 23.7031 9.20554 23.6013 9.10376C23.4995 9.00197 23.3787 8.92124 23.2457 8.86615C23.1127 8.81107 22.9702 8.78271 22.8263 8.78271C22.6823 8.78271 22.5398 8.81107 22.4068 8.86615C22.2738 8.92124 22.153 9.00197 22.0512 9.10376V9.10376Z" fill="#79AF3A"/>
<path d="M15.3847 2.61049e-06C12.3415 -0.00176979 9.36615 0.899026 6.83495 2.58845C4.30376 4.27787 2.33046 6.68003 1.16464 9.49108C-0.001168 12.3021 -0.307117 15.3958 0.285496 18.3807C0.87811 21.3657 2.34266 24.1078 4.49391 26.2603C6.64515 28.4128 9.38644 29.879 12.371 30.4733C15.3556 31.0677 18.4495 30.7635 21.2612 29.5993C24.0729 28.4352 26.4762 26.4633 28.1671 23.9331C29.858 21.4028 30.7606 18.428 30.7606 15.3848C30.7558 11.3075 29.1346 7.39843 26.2524 4.5145C23.3701 1.63058 19.462 0.00711556 15.3847 2.61049e-06V2.61049e-06ZM15.3847 28.5654C12.7753 28.5671 10.224 27.7949 8.05365 26.3463C5.88327 24.8977 4.19135 22.8378 3.19195 20.4274C2.19256 18.017 1.93061 15.3642 2.43924 12.8049C2.94788 10.2455 4.20424 7.89456 6.04937 6.04943C7.89449 4.20431 10.2455 2.94794 12.8048 2.43931C15.3642 1.93067 18.0169 2.19263 20.4273 3.19202C22.8378 4.19141 24.8976 5.88334 26.3462 8.05372C27.7948 10.2241 28.5671 12.7754 28.5653 15.3848C28.5605 18.879 27.1704 22.2288 24.6996 24.6996C22.2287 27.1704 18.879 28.5606 15.3847 28.5654V28.5654Z" fill="#79AF3A"/>
</svg>
