<svg width="54" height="53" viewBox="0 0 54 53" fill="none" xmlns="http://www.w3.org/2000/svg">
<path d="M20.6999 17.6666H18.8999V19.4333H20.6999V17.6666Z" fill="#00953A"/>
<path d="M20.6999 21.2001H18.8999V22.9667H20.6999V21.2001Z" fill="#00953A"/>
<path d="M20.6999 24.7333H18.8999V26.4999H20.6999V24.7333Z" fill="#00953A"/>
<path d="M20.6999 28.2667H18.8999V30.0334H20.6999V28.2667Z" fill="#00953A"/>
<path d="M24.3 17.6666H22.5V19.4333H24.3V17.6666Z" fill="#00953A"/>
<path d="M24.3 21.2001H22.5V22.9667H24.3V21.2001Z" fill="#00953A"/>
<path d="M24.3 24.7333H22.5V26.4999H24.3V24.7333Z" fill="#00953A"/>
<path d="M24.3 28.2667H22.5V30.0334H24.3V28.2667Z" fill="#00953A"/>
<path d="M27.9001 17.6666H26.1001V19.4333H27.9001V17.6666Z" fill="#00953A"/>
<path d="M27.9001 21.2001H26.1001V22.9667H27.9001V21.2001Z" fill="#00953A"/>
<path d="M27.9001 24.7333H26.1001V26.4999H27.9001V24.7333Z" fill="#00953A"/>
<path d="M27.9001 28.2667H26.1001V30.0334H27.9001V28.2667Z" fill="#00953A"/>
<path d="M31.4999 17.6666H29.7V19.4333H31.4999V17.6666Z" fill="#00953A"/>
<path d="M24.3 14.1333H22.5V15.9H24.3V14.1333Z" fill="#00953A"/>
<path d="M27.9001 14.1333H26.1001V15.9H27.9001V14.1333Z" fill="#00953A"/>
<path d="M31.4999 14.1333H29.7V15.9H31.4999V14.1333Z" fill="#00953A"/>
<path d="M31.4999 21.2001H29.7V22.9667H31.4999V21.2001Z" fill="#00953A"/>
<path d="M31.4999 24.7333H29.7V26.4999H31.4999V24.7333Z" fill="#00953A"/>
<path d="M31.4999 28.2667H29.7V30.0334H31.4999V28.2667Z" fill="#00953A"/>
<path d="M35.1 17.6666H33.3V19.4333H35.1V17.6666Z" fill="#00953A"/>
<path d="M35.1 21.2001H33.3V22.9667H35.1V21.2001Z" fill="#00953A"/>
<path d="M35.1 24.7333H33.3V26.4999H35.1V24.7333Z" fill="#00953A"/>
<path d="M35.1 28.2667H33.3V30.0334H35.1V28.2667Z" fill="#00953A"/>
<path d="M53.101 13.25C53.1007 13.25 53.1003 13.25 53.1 13.25H39.6V0.883334C39.6003 0.395734 39.1978 0.000331458 38.701 2.08152e-07C38.7007 2.08152e-07 38.7003 2.08152e-07 38.7 2.08152e-07H15.3C14.8032 -0.000331042 14.4003 0.39474 14.4 0.88234C14.4 0.882672 14.4 0.883003 14.4 0.883334V13.25H0.9C0.4032 13.2497 0.000337712 13.6447 2.12079e-07 14.1323C2.12079e-07 14.1327 2.12079e-07 14.133 2.12079e-07 14.1333V45.9334C-0.000337288 46.421 0.402188 46.8164 0.898988 46.8167C0.899325 46.8167 0.899663 46.8167 0.9 46.8167H2.78134C2.72914 47.1084 2.70191 47.4039 2.7 47.7V52.1167C2.69966 52.6043 3.10219 52.9997 3.59899 53C3.59932 53 3.59966 53 3.6 53H50.4C50.8968 53.0004 51.2997 52.6053 51.3 52.1177C51.3 52.1174 51.3 52.117 51.3 52.1167V47.7C51.2982 47.4039 51.271 47.1084 51.2187 46.8167H53.1C53.5968 46.817 53.9997 46.422 54 45.9344C54 45.934 54 45.9337 54 45.9334V14.1333C54.0003 13.6457 53.5978 13.2503 53.101 13.25ZM38.7 37.9834C38.7 38.9591 37.8942 39.75 36.9 39.75C35.9058 39.75 35.1 38.9591 35.1 37.9834C35.1 37.0076 35.9058 36.2167 36.9 36.2167C37.8936 36.2179 38.6988 37.0082 38.7 37.9834ZM17.1 36.2167C18.0942 36.2167 18.9 37.0076 18.9 37.9834C18.9 38.9591 18.0942 39.75 17.1 39.75C16.1058 39.75 15.3 38.9591 15.3 37.9834C15.3012 37.0082 16.1064 36.2179 17.1 36.2167ZM11.7 51.2334H4.5V47.7C4.5 45.7486 6.11179 44.1667 8.1 44.1667C10.0882 44.1667 11.7 45.7486 11.7 47.7V51.2334ZM6.3 40.6334C6.3 39.6576 7.10584 38.8667 8.1 38.8667C9.09416 38.8667 9.9 39.6576 9.9 40.6334C9.9 41.6091 9.09416 42.4 8.1 42.4C7.1064 42.3988 6.30124 41.6086 6.3 40.6334ZM11.8363 43.8824C11.4969 43.5611 11.1164 43.2846 10.7042 43.0599C12.0769 41.6483 12.0239 39.4117 10.5857 38.0643C9.14749 36.7169 6.86869 36.769 5.49585 38.1806C4.16801 39.5459 4.16801 41.6945 5.49585 43.0598C4.6368 43.5277 3.9231 44.2155 3.43058 45.0499H1.8V15.0167H14.4V35.6708C13.1641 37.0319 13.2058 39.098 14.4959 40.4099C13.1459 41.1427 12.1785 42.4059 11.8363 43.8824ZM20.7 51.2334H13.5V45.05C13.5 43.0986 15.1118 41.5167 17.1 41.5167C19.0882 41.5167 20.7 43.0986 20.7 45.05V51.2334ZM31.5 51.2334H22.5V45.05C22.5 42.6108 24.5148 40.6334 27 40.6334C29.4852 40.6334 31.5 42.6108 31.5 45.05V51.2334ZM24.3 36.2167C24.3 34.7531 25.5088 33.5667 27 33.5667C28.4912 33.5667 29.7 34.7531 29.7 36.2167C29.7 37.6803 28.4912 38.8667 27 38.8667C25.5095 38.8651 24.3016 37.6796 24.3 36.2167ZM32.4812 42.013C31.8786 40.9702 30.9819 40.1206 29.899 39.5662C31.7999 37.9947 32.0429 35.2084 30.4419 33.3427C28.8408 31.4769 26.0019 31.2384 24.101 32.8098C22.2001 34.3812 21.9571 37.1676 23.5581 39.0333C23.7232 39.2258 23.9048 39.404 24.101 39.5662C23.0181 40.1206 22.1214 40.9702 21.5188 42.013C21.0456 41.3505 20.425 40.8023 19.7041 40.4099C21.084 39.0245 21.0583 36.8034 19.6467 35.4492C18.7378 34.5771 17.4255 34.2445 16.2 34.5755V1.76667H37.8V34.5755C37.5067 34.4961 37.2042 34.4539 36.9 34.45C34.9171 34.4448 33.3053 36.0184 33.3 37.9647C33.2975 38.8754 33.6545 39.7518 34.2958 40.4099C33.5749 40.8023 32.9544 41.3505 32.4812 42.013ZM40.5 47.7V51.2334H33.3V45.05C33.3 43.0986 34.9118 41.5167 36.9 41.5167C38.8882 41.5167 40.5 43.0986 40.5 45.05V47.7ZM49.5 51.2334H42.3V47.7C42.3 45.7486 43.9118 44.1667 45.9 44.1667C47.8882 44.1667 49.5 45.7486 49.5 47.7V51.2334ZM44.1 40.6334C44.1 39.6576 44.9058 38.8667 45.9 38.8667C46.8942 38.8667 47.7 39.6576 47.7 40.6334C47.7 41.6091 46.8942 42.4 45.9 42.4C44.9064 42.3988 44.1012 41.6086 44.1 40.6334ZM52.2 45.05H50.5694C50.0769 44.2156 49.3632 43.5278 48.5042 43.0599C49.8769 41.6483 49.8239 39.4117 48.3857 38.0643C46.9475 36.717 44.6687 36.769 43.2958 38.1806C41.968 39.5459 41.968 41.6945 43.2958 43.0598C42.8836 43.2845 42.5029 43.5609 42.1636 43.8823C41.8216 42.4058 40.8541 41.1426 39.5042 40.4098C40.7942 39.0979 40.836 37.0318 39.6001 35.6707V15.0167H52.2001V45.05H52.2Z" fill="#00953A"/>
<path d="M44.1 20.3167H42.3V34.45H44.1V20.3167Z" fill="#00953A"/>
<path d="M49.5 20.3167H47.7V34.45H49.5V20.3167Z" fill="#00953A"/>
<path d="M6.3 20.3167H4.5V34.45H6.3V20.3167Z" fill="#00953A"/>
<path d="M11.6999 20.3167H9.8999V34.45H11.6999V20.3167Z" fill="#00953A"/>
<path d="M32.401 3.53333C32.4006 3.53333 32.4003 3.53333 32.4 3.53333H21.6C21.1032 3.53299 20.7003 3.92807 20.7 4.41567C20.7 4.416 20.7 4.41633 20.7 4.41666V11.4833C20.6996 11.9709 21.1021 12.3663 21.5989 12.3667C21.5993 12.3667 21.5996 12.3667 21.6 12.3667H32.4C32.8968 12.367 33.2996 11.9719 33.3 11.4843C33.3 11.484 33.3 11.4837 33.3 11.4833V4.41666C33.3003 3.92906 32.8978 3.53366 32.401 3.53333ZM31.5 10.6H22.5V5.29999H31.5V10.6Z" fill="#00953A"/>
</svg>
