<svg width="31" height="29" viewBox="0 0 31 29" fill="none" xmlns="http://www.w3.org/2000/svg">
<path d="M27.0747 4.14056H13.9119L12.3733 0.571944C12.311 0.407407 12.2011 0.265148 12.0577 0.16329C11.9142 0.0614321 11.7437 0.00458804 11.5678 0L3.2625 0C1.46611 0 0 1.69972 0 3.79417V25.2058C0 27.3003 1.46611 29 3.2625 29H27.0747C28.8792 29 30.3453 27.3003 30.3453 25.2058V7.94278C30.3453 5.84833 28.8792 4.14056 27.0747 4.14056ZM3.2625 2.07028H11.0281L11.9222 4.14056H1.78028V3.79417C1.74918 3.36922 1.88767 2.94926 2.16546 2.62619C2.44324 2.30311 2.8377 2.10323 3.2625 2.07028ZM28.565 25.2058C28.5804 25.4169 28.554 25.6289 28.4874 25.8298C28.4208 26.0306 28.3153 26.2164 28.177 26.3765C28.0386 26.5366 27.87 26.6678 27.6809 26.7627C27.4917 26.8577 27.2858 26.9144 27.0747 26.9297H3.2625C2.8377 26.8968 2.44324 26.6969 2.16546 26.3738C1.88767 26.0507 1.74918 25.6308 1.78028 25.2058V6.21083H27.0747C27.2865 6.22612 27.4932 6.28312 27.6829 6.37855C27.8725 6.47399 28.0415 6.60598 28.18 6.76693C28.3185 6.92788 28.4238 7.11463 28.4899 7.31642C28.5559 7.51822 28.5815 7.73108 28.565 7.94278V25.2058Z" fill="#294F75"/>
</svg>
