<svg width="27" height="27" viewBox="0 0 27 27" fill="none" xmlns="http://www.w3.org/2000/svg">
<path d="M13.5 0C6.05631 0 0 6.05579 0 13.5C0 20.9442 6.05631 27 13.5 27C20.9437 27 27 20.9442 27 13.5C27 6.05579 20.9437 0 13.5 0ZM13.5 25.9615C6.62902 25.9615 1.03846 20.371 1.03846 13.5C1.03846 6.62902 6.62902 1.03846 13.5 1.03846C20.371 1.03846 25.9615 6.62902 25.9615 13.5C25.9615 20.371 20.371 25.9615 13.5 25.9615Z" fill="#D23A3A"/>
<path d="M18.5401 8.45988C18.3371 8.25686 18.0089 8.25686 17.8059 8.45988L13.4999 12.7659L9.19395 8.45988C8.99093 8.25686 8.66278 8.25686 8.45976 8.45988C8.25674 8.6629 8.25674 8.99106 8.45976 9.19407L12.7657 13.5001L8.45976 17.806C8.25674 18.0091 8.25674 18.3372 8.45976 18.5402C8.56101 18.6415 8.69393 18.6924 8.82686 18.6924C8.95978 18.6924 9.0927 18.6415 9.19395 18.5402L13.4999 14.2342L17.8059 18.5402C17.9072 18.6415 18.0401 18.6924 18.173 18.6924C18.3059 18.6924 18.4389 18.6415 18.5401 18.5402C18.7431 18.3372 18.7431 18.0091 18.5401 17.806L14.2341 13.5001L18.5401 9.19407C18.7431 8.99106 18.7431 8.6629 18.5401 8.45988Z" fill="#D23A3A"/>
</svg>
