<svg width="267" height="267" viewBox="0 0 267 267" fill="none" xmlns="http://www.w3.org/2000/svg">
<path d="M25.8387 241.161H34.4516V249.774H25.8387V241.161Z" fill="#00953A"/>
<path d="M43.0644 241.161H51.6773V249.774H43.0644V241.161Z" fill="#00953A"/>
<path d="M60.2906 241.161H68.9036V249.774H60.2906V241.161Z" fill="#00953A"/>
<path d="M206.709 241.161H241.161V249.774H206.709V241.161Z" fill="#00953A"/>
<path d="M258.387 223.935V81.8226C258.387 69.9504 248.727 60.2903 236.855 60.2903H223.935C223.935 27.0436 196.892 0 163.645 0C130.398 0 103.355 27.0436 103.355 60.2903H30.1452C18.273 60.2903 8.6129 69.9504 8.6129 81.8226V223.935H0V245.468C0 257.34 9.66008 267 21.5323 267H245.468C257.34 267 267 257.34 267 245.468V223.935H258.387ZM236.855 68.9032C243.977 68.9032 249.774 74.7005 249.774 81.8226V223.935H241.161V86.129C241.161 81.3789 237.299 77.5161 232.548 77.5161H221.395C222.226 74.7258 222.825 71.845 223.246 68.9032H236.855ZM114.47 44.465L160.178 63.5118L175.829 110.456C171.913 111.408 167.849 111.968 163.645 111.968C135.149 111.968 111.968 88.7869 111.968 60.2903C111.968 54.7685 112.859 49.4548 114.47 44.465ZM184.01 107.769L168.572 61.4532L203.066 26.9574C210.697 35.9635 215.323 47.5897 215.323 60.2903C215.323 81.5555 202.403 99.8495 184.01 107.769ZM163.645 8.6129C176.346 8.6129 187.972 13.239 196.982 20.8657L162.642 55.2038L117.807 36.527C126.424 19.9657 143.719 8.6129 163.645 8.6129ZM17.2258 81.8226C17.2258 74.7005 23.0231 68.9032 30.1452 68.9032H104.045C104.465 71.845 105.06 74.7258 105.895 77.5161H34.4516C29.7015 77.5161 25.8387 81.3789 25.8387 86.129V223.935H17.2258V81.8226ZM258.387 245.468C258.387 252.59 252.59 258.387 245.468 258.387H21.5323C14.4102 258.387 8.6129 252.59 8.6129 245.468V232.548H97.3346C103.527 238.117 111.45 241.161 119.845 241.161H147.16C155.554 241.161 163.477 238.117 169.67 232.548H223.935V223.935H166.168L164.907 225.197C160.165 229.939 153.865 232.548 147.155 232.548H119.84C113.135 232.548 106.831 229.939 102.089 225.197L100.832 223.935H34.4516V86.129H109.255C118.957 106.465 139.655 120.581 163.645 120.581C187.636 120.581 208.333 106.465 218.035 86.129H232.548V232.548H258.387V245.468Z" fill="#00953A"/>
<path d="M211.016 180.871C208.373 180.871 205.913 181.676 203.862 183.045L188.838 171.781C189.221 170.561 189.484 169.291 189.484 167.952C189.484 160.83 183.686 155.032 176.564 155.032C169.442 155.032 163.645 160.83 163.645 167.952C163.645 169.434 163.946 170.837 164.406 172.164L140.288 191.461C138.311 190.228 135.998 189.484 133.5 189.484C130.602 189.484 127.953 190.479 125.795 192.093L107.226 179.712C107.485 178.701 107.661 177.658 107.661 176.565C107.661 169.443 101.864 163.645 94.7418 163.645C87.6198 163.645 81.8225 169.443 81.8225 176.565C81.8225 177.658 81.9991 178.701 82.2577 179.712L63.6883 192.093C61.5308 190.474 58.8814 189.484 55.9837 189.484C48.8617 189.484 43.0644 195.281 43.0644 202.403C43.0644 209.525 48.8617 215.323 55.9837 215.323C63.1058 215.323 68.9031 209.525 68.9031 202.403C68.9031 201.31 68.7265 200.267 68.4678 199.255L87.0373 186.874C89.1947 188.494 91.8442 189.484 94.7418 189.484C97.6394 189.484 100.289 188.494 102.446 186.874L121.016 199.255C120.757 200.267 120.581 201.314 120.581 202.403C120.581 209.525 126.378 215.323 133.5 215.323C140.622 215.323 146.419 209.525 146.419 202.403C146.419 200.921 146.119 199.518 145.658 198.191L169.777 178.894C171.753 180.127 174.066 180.871 176.564 180.871C179.208 180.871 181.668 180.066 183.718 178.697L198.742 189.961C198.359 191.181 198.097 192.451 198.097 193.79C198.097 200.912 203.894 206.71 211.016 206.71C218.138 206.71 223.935 200.912 223.935 193.79C223.935 186.668 218.138 180.871 211.016 180.871ZM55.9837 206.71C53.6118 206.71 51.6773 204.775 51.6773 202.403C51.6773 200.031 53.6118 198.097 55.9837 198.097C58.3557 198.097 60.2902 200.031 60.2902 202.403C60.2902 204.775 58.3557 206.71 55.9837 206.71ZM94.7418 180.871C92.3699 180.871 90.4354 178.937 90.4354 176.565C90.4354 174.193 92.3699 172.258 94.7418 172.258C97.1137 172.258 99.0483 174.193 99.0483 176.565C99.0483 178.937 97.1137 180.871 94.7418 180.871ZM133.5 206.71C131.128 206.71 129.193 204.775 129.193 202.403C129.193 200.031 131.128 198.097 133.5 198.097C135.872 198.097 137.806 200.031 137.806 202.403C137.806 204.775 135.872 206.71 133.5 206.71ZM176.564 172.258C174.192 172.258 172.258 170.324 172.258 167.952C172.258 165.58 174.192 163.645 176.564 163.645C178.936 163.645 180.871 165.58 180.871 167.952C180.871 170.324 178.936 172.258 176.564 172.258ZM211.016 198.097C208.644 198.097 206.71 196.162 206.71 193.79C206.71 191.418 208.644 189.484 211.016 189.484C213.388 189.484 215.322 191.418 215.322 193.79C215.322 196.162 213.388 198.097 211.016 198.097Z" fill="#00953A"/>
<path d="M111.968 94.7419H43.0644V155.032H111.968V94.7419ZM103.355 146.419H51.6773V103.355H103.355V146.419Z" fill="#00953A"/>
<path d="M60.2906 111.968H94.7423V120.581H60.2906V111.968Z" fill="#00953A"/>
<path d="M60.2906 129.194H94.7423V137.807H60.2906V129.194Z" fill="#00953A"/>
<path d="M120.581 137.806H129.194V146.419H120.581V137.806Z" fill="#00953A"/>
<path d="M137.806 137.806H223.935V146.419H137.806V137.806Z" fill="#00953A"/>
</svg>
