<svg width="29" height="29" viewBox="0 0 29 29" fill="none" xmlns="http://www.w3.org/2000/svg">
<g clip-path="url(#clip0)">
<path d="M28.0872 10.7428C27.8322 10.5279 27.5374 10.3655 27.2196 10.2647C26.9018 10.1639 26.5672 10.1268 26.235 10.1556C25.9028 10.1843 25.5796 10.2783 25.2838 10.4321C24.988 10.586 24.7254 10.7967 24.5112 11.0521L22.0895 13.9114V5.61275C22.0878 5.26847 22.0167 4.92805 21.8806 4.6118C21.7445 4.29554 21.5462 4.00993 21.2973 3.77196L18.1061 0.701464C17.6229 0.240958 16.978 -0.0110484 16.3106 -0.000148896H2.54995C1.87427 0.00184133 1.22684 0.271135 0.749061 0.748912C0.271284 1.22669 0.00199022 1.87412 0 2.5498L0 26.4499C0 27.1262 0.268654 27.7748 0.746863 28.253C1.22507 28.7312 1.87366 28.9999 2.54995 28.9999H19.5395C20.2158 28.9999 20.8644 28.7312 21.3426 28.253C21.8208 27.7748 22.0895 27.1262 22.0895 26.4499V21.8102L28.404 14.3339C28.6198 14.0777 28.7829 13.7813 28.8838 13.4619C28.9847 13.1424 29.0215 12.8062 28.9921 12.4725C28.9627 12.1388 28.8675 11.8142 28.7122 11.5173C28.5569 11.2205 28.3445 10.9573 28.0872 10.7428ZM16.9896 2.0217C20.3694 5.28081 20.1506 5.01676 20.211 5.09975H16.9896V2.0217ZM20.3694 26.4499C20.3674 26.6754 20.277 26.8911 20.1175 27.0505C19.9581 27.21 19.7424 27.3004 19.5169 27.3024H2.54995C2.32446 27.3004 2.10877 27.21 1.94932 27.0505C1.78987 26.8911 1.69942 26.6754 1.69745 26.4499V2.5498C1.69942 2.32431 1.78987 2.10862 1.94932 1.94917C2.10877 1.78972 2.32446 1.69927 2.54995 1.6973H15.2921V5.9447C15.2941 6.16949 15.3848 6.38439 15.5445 6.54264C15.7041 6.70088 15.9198 6.78966 16.1446 6.78965H20.3694V15.9182L16.7557 20.1882C16.5021 20.493 16.3215 20.8516 16.2276 21.2368L15.4732 24.5412C15.4368 24.691 15.4421 24.8479 15.4885 24.995C15.5348 25.142 15.6206 25.2735 15.7363 25.3753C15.8521 25.4771 15.9936 25.5453 16.1453 25.5725C16.2971 25.5997 16.4534 25.5848 16.5973 25.5295L19.7131 24.1791C19.9472 24.0741 20.1656 23.937 20.3619 23.7717L20.3694 26.4499ZM18.3476 20.9502L19.6527 22.0365L19.3585 22.3836C19.2745 22.4841 19.1687 22.564 19.0492 22.6174L17.4875 23.2889L17.8798 21.6367C17.9097 21.509 17.9691 21.3902 18.0533 21.2897L18.3476 20.9502ZM20.7466 20.7389L19.4641 19.6526L24.1415 14.0925L25.4391 15.1788L20.7466 20.7389ZM27.0838 13.24L26.533 13.8812L25.2581 12.825L25.8088 12.1762C25.88 12.0909 25.9674 12.0204 26.0659 11.9689C26.1644 11.9174 26.2721 11.8859 26.3829 11.8761C26.4936 11.8662 26.6052 11.8784 26.7112 11.9118C26.8172 11.9451 26.9156 11.9991 27.0008 12.0706C27.1633 12.2159 27.2646 12.4174 27.2842 12.6345C27.3038 12.8515 27.2402 13.0679 27.1064 13.24H27.0838Z" fill="#294F75"/>
</g>
<defs>
<clipPath id="clip0">
<path d="M0 0H29V29H0V0Z" fill="white"/>
</clipPath>
</defs>
</svg>
