<svg width="59" height="59" viewBox="0 0 59 59" fill="none" xmlns="http://www.w3.org/2000/svg">
<path d="M48.5199 47.8042C48.0426 47.8042 47.6556 48.1911 47.6556 48.6684V56.7941C47.6556 57.0571 47.4415 57.2713 47.1785 57.2713H42.5326V40.2515C42.5326 39.7742 42.1456 39.3872 41.6683 39.3872C41.191 39.3872 40.804 39.7742 40.804 40.2515V57.2714H31.4487L34.1617 54.2868C34.4581 53.9607 34.5979 53.4962 34.5355 53.0438C34.5344 53.035 34.533 53.0263 34.5315 53.0175L31.9476 37.7527L32.6437 36.7048C33.0286 36.9781 33.3251 37.2413 33.8811 37.2413C34.4467 37.2413 34.9755 36.9248 35.2357 36.4037V36.4036L37.961 30.9415L44.1693 33.3458C44.3939 33.4422 47.6554 34.9109 47.6554 38.7893V44.6351C47.6553 45.1123 48.0423 45.4994 48.5197 45.4994C48.997 45.4994 49.3839 45.1124 49.3839 44.6351V38.7893C49.3839 33.6793 45.0086 31.8219 44.8224 31.7452C44.817 31.7429 44.8114 31.7407 44.8059 31.7387L34.4731 27.737V25.3137C36.1142 24.0373 37.2522 22.1453 37.5378 19.9867C38.3561 19.9291 39.1154 19.6235 39.7355 19.0903C40.5452 18.3939 41.0098 17.3805 41.0098 16.3102C41.0098 15.4219 40.6894 14.5738 40.1183 13.9129V10.7114C40.1182 4.80516 35.3131 0 29.4069 0C23.5007 0 18.6956 4.80516 18.6956 10.7114V13.9968C18.1184 14.651 17.8045 15.4563 17.8045 16.31C17.8045 17.3807 18.2689 18.3941 19.0789 19.0905C19.6985 19.6235 20.4573 19.9287 21.2754 19.9865C21.5634 22.1855 22.7345 24.1481 24.5154 25.4416V27.737L14.1938 31.7385C14.1884 31.7406 14.1829 31.7428 14.1775 31.745C13.9912 31.8216 9.61597 33.6791 9.61597 38.789V56.7938C9.61597 58.0101 10.6055 58.9997 11.8218 58.9997H20.0561C20.5334 58.9997 20.9203 58.6127 20.9203 58.1354C20.9203 57.6581 20.5334 57.2711 20.0561 57.2711H18.1966V40.2515C18.1966 39.7742 17.8096 39.3872 17.3323 39.3872C16.855 39.3872 16.468 39.7742 16.468 40.2515V57.2714H11.8219C11.5588 57.2714 11.3447 57.0573 11.3447 56.7942V38.7892C11.3447 34.8978 14.6281 33.4324 14.8297 33.3462L21.0333 30.9412L23.7588 36.4036C24.0196 36.9259 24.5491 37.2413 25.1135 37.2413C25.6667 37.2413 25.9604 36.9822 26.3509 36.7048L27.047 37.7527L24.4633 53.0176C24.4618 53.0262 24.4606 53.0349 24.4593 53.0437C24.3969 53.4958 24.5366 53.9606 24.8331 54.2869L27.5461 57.2715H24.0896C23.6123 57.2715 23.2254 57.6584 23.2254 58.1357C23.2254 58.613 23.6123 59 24.0896 59H47.1786C48.3949 59 49.3844 58.0104 49.3844 56.7942V48.6685C49.3842 48.1911 48.9972 47.8042 48.5199 47.8042ZM36.3421 30.3146L33.8012 35.4068C33.7381 35.362 32.3916 34.4053 30.7456 33.2365C31.4598 32.3548 30.6242 33.3862 33.884 29.3626L36.3421 30.3146ZM31.2335 35.7034L30.5746 36.6952H28.4193L27.7604 35.7034L29.497 34.4701L31.2335 35.7034ZM26.2438 28.0159V26.3985C27.2938 26.8217 28.416 27.018 29.5119 27.018C30.645 27.018 31.7562 26.7764 32.7444 26.3443V28.0229L29.497 32.0314L26.2438 28.0159ZM39.2812 16.3102C39.2811 16.8763 39.0359 17.412 38.6084 17.7797C38.3257 18.0229 37.9843 18.1783 37.6103 18.2392V14.3815C38.6036 14.5428 39.2812 15.3667 39.2812 16.3102ZM21.2039 18.2392C20.1993 18.0761 19.533 17.2455 19.533 16.31C19.533 15.3861 20.299 14.6341 21.2039 14.4249V18.2392ZM21.2504 12.6638C20.9751 12.6954 20.6596 12.7699 20.4244 12.8499V10.7114C20.4244 5.75826 24.4539 1.72863 29.407 1.72863C34.3601 1.72863 38.3897 5.75826 38.3897 10.7114V12.7906C38.1384 12.7142 37.8779 12.6637 37.6104 12.6399C37.6104 11.806 37.6177 11.9669 34.8895 9.0338C34.3878 8.49473 33.5579 8.3818 32.9263 8.79446C29.9152 10.7614 26.2421 11.7495 22.8531 11.5062C22.1097 11.4505 21.4326 11.9401 21.2504 12.6638ZM22.9326 18.9196V13.5276V13.2435C26.6633 13.462 30.5747 12.3537 33.7345 10.3301C34.9857 11.6735 35.6633 12.3781 35.8818 12.6462C35.8818 13.3242 35.8818 18.1434 35.8818 18.9195C35.8818 22.4281 33.021 25.2892 29.512 25.2892C25.5717 25.2893 22.9326 22.2326 22.9326 18.9196ZM25.1929 35.4068L22.6521 30.3146L25.1058 29.3643L28.2449 33.239C26.6485 34.3726 25.3377 35.3039 25.1929 35.4068ZM26.1845 53.2039L28.6861 38.4236H30.3076L32.8092 53.2039L29.4969 56.848L26.1845 53.2039Z" fill="#00953A"/>
</svg>
