<svg width="35" height="35" viewBox="0 0 35 35" fill="none" xmlns="http://www.w3.org/2000/svg">
<g clip-path="url(#clip0)">
<path d="M29.3024 5.02768C27.7116 3.41984 25.8187 2.14226 23.7325 1.26837C21.6464 0.394475 19.408 -0.0584978 17.1462 -0.0645145C14.8844 -0.0705311 12.6437 0.370527 10.5529 1.23331C8.46208 2.09609 6.56241 3.36359 4.96306 4.96294C3.36371 6.56229 2.09621 8.46196 1.23343 10.5528C0.37065 12.6436 -0.070409 14.8843 -0.0643924 17.1461C-0.0583758 19.4079 0.394598 21.6462 1.26849 23.7324C2.14239 25.8186 3.41997 27.7115 5.0278 29.3023C6.61862 30.9102 8.51153 32.1877 10.5977 33.0616C12.6839 33.9355 14.9222 34.3885 17.184 34.3945C19.4459 34.4005 21.6866 33.9595 23.7774 33.0967C25.8682 32.2339 27.7678 30.9664 29.3672 29.3671C30.9665 27.7677 32.234 25.868 33.0968 23.7772C33.9596 21.6864 34.4007 19.4457 34.3946 17.1839C34.3886 14.9221 33.9356 12.6838 33.0618 10.5976C32.1879 8.5114 30.9103 6.6185 29.3024 5.02768ZM17.1208 32.2813C14.133 32.2725 11.2148 31.3785 8.73478 29.7122C6.25475 28.0459 4.32416 25.682 3.18683 22.9191C2.0495 20.1562 1.75646 17.1182 2.34472 14.1889C2.93298 11.2596 4.37615 8.57024 6.49195 6.46062C8.60775 4.351 11.3013 2.9157 14.2323 2.33602C17.1634 1.75634 20.2005 2.05826 22.9601 3.20367C25.7196 4.34908 28.0778 6.28658 29.7369 8.77147C31.3959 11.2564 32.2814 14.1772 32.2814 17.165C32.2785 21.1732 30.6849 25.0164 27.8507 27.8506C25.0165 30.6848 21.1733 32.2783 17.1651 32.2813H17.1208Z" fill="#C4C4C4"/>
<path d="M8.85925 14.0753C9.0657 13.8626 9.31272 13.6936 9.58569 13.5781C9.85866 13.4627 10.152 13.4032 10.4484 13.4032C10.7448 13.4032 11.0381 13.4627 11.3111 13.5781C11.5841 13.6936 11.8311 13.8626 12.0375 14.0753C12.1321 14.1705 12.2444 14.2463 12.3682 14.2981C12.492 14.3499 12.6248 14.3769 12.759 14.3774C12.8932 14.3779 13.0262 14.352 13.1504 14.3011C13.2745 14.2502 13.3875 14.1754 13.4827 14.0808C13.578 13.9863 13.6537 13.8739 13.7055 13.7502C13.7573 13.6264 13.7843 13.4936 13.7848 13.3594C13.7853 13.2252 13.7594 13.0922 13.7085 12.968C13.6576 12.8438 13.5828 12.7309 13.4883 12.6356C12.6828 11.8323 11.5916 11.3811 10.4539 11.3811C9.31629 11.3811 8.22509 11.8323 7.41961 12.6356C7.24133 12.8291 7.14476 13.0839 7.15011 13.3469C7.15546 13.6099 7.26232 13.8606 7.44831 14.0466C7.6343 14.2326 7.88502 14.3394 8.14801 14.3448C8.41099 14.3501 8.66585 14.2536 8.85925 14.0753Z" fill="#C4C4C4"/>
<path d="M22.3257 14.0753C22.5321 13.8626 22.7791 13.6936 23.0521 13.5781C23.3251 13.4627 23.6184 13.4032 23.9148 13.4032C24.2112 13.4032 24.5046 13.4627 24.7775 13.5781C25.0505 13.6936 25.2975 13.8626 25.504 14.0753C25.695 14.266 25.9539 14.3731 26.2238 14.3731C26.4937 14.3731 26.7526 14.266 26.9436 14.0753C27.1343 13.8843 27.2414 13.6254 27.2414 13.3555C27.2414 13.0856 27.1343 12.8267 26.9436 12.6356C26.1381 11.8323 25.0469 11.3811 23.9093 11.3811C22.7716 11.3811 21.6804 11.8323 20.875 12.6356C20.6843 12.8267 20.5771 13.0856 20.5771 13.3555C20.5771 13.6254 20.6843 13.8843 20.875 14.0753C21.0679 14.2667 21.3286 14.3741 21.6003 14.3741C21.8721 14.3741 22.1328 14.2667 22.3257 14.0753Z" fill="#C4C4C4"/>
<path d="M26.2236 17.9181H8.10623C7.83602 17.9181 7.57688 18.0254 7.38581 18.2165C7.19474 18.4076 7.0874 18.6667 7.0874 18.9369C7.0874 21.6096 8.14914 24.1729 10.039 26.0628C11.9289 27.9527 14.4922 29.0144 17.1649 29.0144C19.8376 29.0144 22.4009 27.9527 24.2908 26.0628C26.1807 24.1729 27.2424 21.6096 27.2424 18.9369C27.2424 18.8031 27.2161 18.6706 27.1649 18.547C27.1137 18.4234 27.0386 18.3111 26.944 18.2165C26.8494 18.1219 26.7371 18.0468 26.6135 17.9956C26.4899 17.9444 26.3574 17.9181 26.2236 17.9181ZM17.1649 26.9768C15.2067 26.9733 13.3168 26.2563 11.8491 24.9598C10.3815 23.6634 9.43662 21.8765 9.1915 19.9336H25.1383C24.8932 21.8765 23.9484 23.6634 22.4807 24.9598C21.0131 26.2563 19.1232 26.9733 17.1649 26.9768Z" fill="#C4C4C4"/>
</g>
<defs>
<clipPath id="clip0">
<path d="M0 0H34.33V34.33H0V0Z" fill="white"/>
</clipPath>
</defs>
</svg>
