<svg width="29" height="29" viewBox="0 0 29 29" fill="none" xmlns="http://www.w3.org/2000/svg">
<g clip-path="url(#clip0)">
<path d="M14.5048 22.5293C14.6869 22.5293 14.8649 22.4753 15.0163 22.3741C15.1677 22.2729 15.2857 22.1291 15.3554 21.9609C15.4251 21.7926 15.4434 21.6075 15.4078 21.4289C15.3723 21.2503 15.2846 21.0862 15.1558 20.9574C15.0271 20.8287 14.863 20.741 14.6844 20.7054C14.5058 20.6699 14.3206 20.6881 14.1524 20.7578C13.9841 20.8275 13.8403 20.9455 13.7392 21.097C13.638 21.2484 13.584 21.4264 13.584 21.6085C13.5883 21.8514 13.6867 22.083 13.8585 22.2548C14.0302 22.4265 14.2619 22.5249 14.5048 22.5293Z" fill="#294F75"/>
<path d="M14.5049 19.353C14.2607 19.353 14.0265 19.256 13.8539 19.0833C13.6812 18.9106 13.5842 18.6764 13.5842 18.4322V14.69C13.5842 14.4458 13.6812 14.2116 13.8539 14.0389C14.0265 13.8662 14.2607 13.7692 14.5049 13.7692C15.0442 13.7676 15.5709 13.6061 16.0185 13.3053C16.4661 13.0045 16.8145 12.5778 17.0197 12.079C17.225 11.5803 17.2778 11.032 17.1715 10.5033C17.0653 9.97453 16.8048 9.48914 16.4229 9.1084C16.0409 8.72765 15.5548 8.46862 15.0257 8.36403C14.4967 8.25943 13.9485 8.31395 13.4504 8.52071C12.9523 8.72747 12.5267 9.0772 12.2272 9.52572C11.9278 9.97423 11.768 10.5014 11.768 11.0407C11.7803 11.1685 11.7657 11.2974 11.7252 11.4192C11.6847 11.541 11.6193 11.653 11.5329 11.748C11.4466 11.843 11.3414 11.9189 11.2241 11.9708C11.1067 12.0227 10.9798 12.0496 10.8514 12.0496C10.7231 12.0496 10.5962 12.0227 10.4788 11.9708C10.3614 11.9189 10.2562 11.843 10.1699 11.748C10.0836 11.653 10.0181 11.541 9.97765 11.4192C9.93717 11.2974 9.92261 11.1685 9.93489 11.0407C9.93471 10.1759 10.1799 9.32875 10.6421 8.59774C11.1042 7.86673 11.7643 7.28186 12.5456 6.91107C13.3269 6.54028 14.1974 6.3988 15.0559 6.50306C15.9144 6.60733 16.7258 6.95306 17.3956 7.50009C18.0655 8.04711 18.5663 8.77298 18.8401 9.59336C19.1138 10.4137 19.1491 11.2949 18.9419 12.1346C18.7347 12.9742 18.2936 13.7379 17.6697 14.3368C17.0457 14.9356 16.2647 15.3452 15.4173 15.5179V18.4322C15.4184 18.5527 15.3956 18.6723 15.3503 18.7839C15.3049 18.8956 15.2379 18.9972 15.1531 19.0828C15.0682 19.1684 14.9673 19.2364 14.856 19.2827C14.7448 19.3291 14.6255 19.353 14.5049 19.353Z" fill="#294F75"/>
<path d="M14.5049 2.46107e-06C11.6358 -0.00166849 8.83077 0.847569 6.44445 2.4403C4.05813 4.03303 2.19777 6.29769 1.09869 8.94784C-0.000397474 11.598 -0.288835 14.5146 0.269859 17.3287C0.828554 20.1428 2.20928 22.728 4.2374 24.7573C6.26551 26.7866 8.8499 28.1688 11.6637 28.7291C14.4774 29.2895 17.3942 29.0027 20.045 27.9052C22.6958 26.8076 24.9615 24.9486 26.5556 22.5632C28.1498 20.1778 29.0006 17.3733 29.0006 14.5042C28.9962 10.6603 27.4678 6.97497 24.7505 4.25611C22.0332 1.53725 18.3488 0.00670829 14.5049 2.46107e-06ZM14.5049 26.9304C12.0448 26.9321 9.63954 26.204 7.59339 24.8383C5.54724 23.4726 3.95215 21.5307 3.00996 19.2582C2.06777 16.9857 1.82081 14.4848 2.30033 12.072C2.77985 9.65912 3.96431 7.44271 5.70383 5.70319C7.44335 3.96367 9.65976 2.77921 12.0726 2.29969C14.4855 1.82017 16.9864 2.06713 19.2588 3.00932C21.5313 3.95151 23.4732 5.5466 24.8389 7.59275C26.2046 9.63891 26.9327 12.0442 26.931 14.5042C26.9266 17.7985 25.6159 20.9565 23.2865 23.2859C20.9572 25.6153 17.7991 26.9259 14.5049 26.9304Z" fill="#294F75"/>
</g>
<defs>
<clipPath id="clip0">
<path d="M0 0H29V29H0V0Z" fill="white"/>
</clipPath>
</defs>
</svg>
