<svg width="250" height="42" viewBox="0 0 250 42" fill="none" xmlns="http://www.w3.org/2000/svg">
<path d="M0 9.36151H16.231V11.1581H9.16867V31.6637H7.06235V11.1581H0V9.36151Z" fill="white"/>
<path d="M25.9986 23.2384C25.2139 23.5688 24.4189 23.7856 23.6135 23.8889C22.8082 23.9921 22.0028 24.0747 21.1975 24.1367C19.7726 24.2399 18.6575 24.56 17.8521 25.0969C17.0674 25.6338 16.6751 26.4495 16.6751 27.544C16.6751 28.0396 16.768 28.4732 16.9539 28.8449C17.1604 29.196 17.4185 29.4954 17.7282 29.7432C18.0586 29.9704 18.4303 30.1459 18.8433 30.2698C19.277 30.373 19.7106 30.4247 20.1443 30.4247C20.8877 30.4247 21.6105 30.3317 22.3126 30.1459C23.0147 29.96 23.6342 29.6813 24.1711 29.3096C24.7286 28.9172 25.1726 28.4319 25.503 27.8537C25.8334 27.2549 25.9986 26.5528 25.9986 25.7474V23.2384ZM22.8701 22.3092C23.2212 22.2679 23.6342 22.2059 24.1091 22.1233C24.6047 22.0407 25.0074 21.9271 25.3172 21.7826C25.6269 21.638 25.8128 21.4005 25.8747 21.0701C25.9573 20.7191 25.9986 20.399 25.9986 20.1099C25.9986 19.16 25.6889 18.3856 25.0694 17.7868C24.4705 17.1673 23.4483 16.8575 22.0028 16.8575C21.3627 16.8575 20.7741 16.9195 20.2372 17.0434C19.7003 17.1466 19.2254 17.3428 18.8124 17.6319C18.42 17.9003 18.0896 18.2721 17.8212 18.747C17.5734 19.2013 17.4082 19.7795 17.3256 20.4816H15.4361C15.498 19.5317 15.7148 18.7264 16.0865 18.0655C16.4583 17.3841 16.9332 16.8369 17.5114 16.4239C18.1103 15.9902 18.7917 15.6805 19.5558 15.4946C20.3405 15.2881 21.1665 15.1849 22.0338 15.1849C22.8391 15.1849 23.5929 15.2778 24.295 15.4636C25.0177 15.6288 25.6372 15.9076 26.1535 16.3C26.6904 16.6717 27.1034 17.1776 27.3925 17.8177C27.7023 18.4579 27.8571 19.2426 27.8571 20.1719V28.9069C27.8571 29.6296 27.981 30.0943 28.2288 30.3008C28.4973 30.4866 29.0239 30.435 29.8086 30.1459V31.6017C29.664 31.643 29.4472 31.705 29.1581 31.7876C28.8896 31.8702 28.6212 31.9115 28.3527 31.9115C28.0636 31.9115 27.7849 31.8805 27.5164 31.8186C27.2067 31.7772 26.9589 31.6843 26.773 31.5398C26.5872 31.3746 26.4323 31.1887 26.3084 30.9822C26.2051 30.7551 26.1328 30.5176 26.0915 30.2698C26.0502 30.0013 26.0296 29.7226 26.0296 29.4335C25.2449 30.3008 24.3466 30.9616 23.3347 31.4159C22.3229 31.8702 21.2284 32.0973 20.0514 32.0973C19.3493 32.0973 18.6678 32.0044 18.007 31.8186C17.3669 31.6327 16.799 31.3436 16.3034 30.9512C15.8078 30.5589 15.4154 30.0839 15.1263 29.5264C14.8372 28.9482 14.6927 28.2667 14.6927 27.482C14.6927 24.7562 16.5615 23.1455 20.2992 22.6499L22.8701 22.3092Z" fill="white"/>
<path d="M32.9886 31.6637V9.36151H34.8471V31.6637H32.9886Z" fill="white"/>
<path d="M51.1921 22.526C51.1921 21.7413 51.0786 21.0082 50.8514 20.3267C50.6449 19.6246 50.3248 19.0258 49.8912 18.5302C49.4782 18.0139 48.9516 17.6112 48.3114 17.3221C47.6713 17.0124 46.9382 16.8575 46.1122 16.8575C45.2862 16.8575 44.5531 17.0124 43.9129 17.3221C43.2934 17.6319 42.7565 18.0449 42.3022 18.5612C41.8686 19.0774 41.5175 19.6763 41.2491 20.3577C40.9806 21.0392 40.8051 21.7619 40.7225 22.526H51.1921ZM40.7225 24.0747C40.7225 24.9421 40.8361 25.7681 41.0632 26.5528C41.2904 27.3168 41.6208 27.9879 42.0544 28.5662C42.5087 29.1237 43.0766 29.578 43.7581 29.9291C44.4395 30.2595 45.2242 30.4247 46.1122 30.4247C47.3305 30.4247 48.3734 30.1046 49.2407 29.4644C50.108 28.8243 50.6862 27.9157 50.9753 26.7386H53.0506C52.8235 27.5027 52.5241 28.2151 52.1524 28.8759C51.7807 29.5161 51.316 30.0839 50.7585 30.5795C50.2009 31.0545 49.5401 31.4262 48.7761 31.6946C48.012 31.9631 47.124 32.0973 46.1122 32.0973C44.8319 32.0973 43.7271 31.8805 42.7978 31.4468C41.8686 31.0132 41.1045 30.4247 40.5057 29.6813C39.9068 28.9172 39.4628 28.0292 39.1737 27.0174C38.8846 25.9849 38.7401 24.8801 38.7401 23.703C38.7401 22.526 38.9053 21.4212 39.2357 20.3887C39.5867 19.3562 40.072 18.4579 40.6915 17.6938C41.3317 16.9091 42.1061 16.3 43.0147 15.8663C43.9233 15.412 44.9558 15.1849 46.1122 15.1849C48.3218 15.1849 50.0564 15.9489 51.316 17.477C52.5757 18.9845 53.1952 21.1837 53.1745 24.0747H40.7225Z" fill="white"/>
<path d="M58.6468 31.6637H56.7882V15.6185H58.6468V17.8487C59.3902 17.064 60.1542 16.4239 60.9389 15.9283C61.7443 15.4327 62.7045 15.1849 63.8196 15.1849C64.8108 15.1849 65.7298 15.3604 66.5764 15.7114C67.4231 16.0418 68.1355 16.6304 68.7137 17.477C69.106 18.0552 69.3332 18.6541 69.3951 19.2736C69.4778 19.8724 69.5191 20.5023 69.5191 21.1631V31.6637H67.6605V21.194C67.6605 19.7485 67.3405 18.6644 66.7003 17.9416C66.0602 17.2189 64.9967 16.8575 63.5099 16.8575C62.9317 16.8575 62.4051 16.9504 61.9301 17.1363C61.4552 17.3015 61.0215 17.5286 60.6292 17.8177C60.2575 18.1068 59.9374 18.4373 59.6689 18.809C59.4005 19.1807 59.194 19.573 59.0494 19.986C58.8636 20.5023 58.75 20.9979 58.7087 21.4728C58.6674 21.9478 58.6468 22.464 58.6468 23.0216V31.6637Z" fill="white"/>
<path d="M79.6375 31.7256C79.4104 31.7669 79.111 31.8392 78.7393 31.9425C78.3676 32.0457 77.9546 32.0973 77.5003 32.0973C76.571 32.0973 75.8586 31.8702 75.363 31.4159C74.888 30.9409 74.6505 30.1046 74.6505 28.9069V17.1673H72.3893V15.6185H74.6505V11.1581H76.509V15.6185H79.5136V17.1673H76.509V28.1635C76.509 28.5558 76.5194 28.8966 76.54 29.1857C76.5607 29.4748 76.6226 29.7122 76.7259 29.8981C76.8291 30.0839 76.984 30.2182 77.1905 30.3008C77.4177 30.3834 77.7274 30.4247 78.1198 30.4247C78.3676 30.4247 78.6154 30.404 78.8632 30.3627C79.1316 30.3214 79.3897 30.2698 79.6375 30.2078V31.7256Z" fill="white"/>
<path d="M89.002 32.0973C87.9695 32.0767 86.9989 31.8908 86.0903 31.5398C85.2024 31.1887 84.4177 30.6621 83.7362 29.96C83.0754 29.2579 82.5488 28.3803 82.1565 27.3271C81.7641 26.274 81.5679 25.0453 81.5679 23.6411C81.5679 22.464 81.7228 21.3696 82.0326 20.3577C82.3423 19.3252 82.8069 18.4269 83.4264 17.6629C84.046 16.8988 84.8203 16.3 85.7496 15.8663C86.6788 15.412 87.763 15.1849 89.002 15.1849C90.2616 15.1849 91.3561 15.412 92.2854 15.8663C93.2146 16.3 93.989 16.8988 94.6085 17.6629C95.228 18.4063 95.6823 19.2942 95.9714 20.3267C96.2812 21.3592 96.436 22.464 96.436 23.6411C96.436 24.9214 96.2605 26.0778 95.9095 27.1103C95.5584 28.1428 95.0525 29.0308 94.3917 29.7742C93.7515 30.5176 92.9668 31.0958 92.0376 31.5088C91.129 31.9012 90.1171 32.0973 89.002 32.0973ZM94.4536 23.6411C94.4536 22.6912 94.3504 21.8032 94.1439 20.9772C93.9374 20.1512 93.6173 19.4388 93.1836 18.8399C92.75 18.2204 92.1924 17.7351 91.511 17.3841C90.8295 17.033 89.9932 16.8575 89.002 16.8575C88.0314 16.8575 87.1951 17.0537 86.493 17.446C85.8115 17.8177 85.254 18.3237 84.8203 18.9638C84.3867 19.5833 84.0666 20.3061 83.8601 21.1321C83.6536 21.9375 83.5503 22.7738 83.5503 23.6411C83.5503 24.6323 83.6639 25.5512 83.8911 26.3979C84.1389 27.2239 84.4899 27.9363 84.9442 28.5352C85.3985 29.134 85.9664 29.5987 86.6479 29.9291C87.3293 30.2595 88.114 30.4247 89.002 30.4247C89.9725 30.4247 90.7985 30.2388 91.48 29.8671C92.1821 29.4748 92.75 28.9585 93.1836 28.3183C93.6173 27.6782 93.9374 26.9554 94.1439 26.1501C94.3504 25.3447 94.4536 24.5084 94.4536 23.6411Z" fill="white"/>
<path d="M100.917 26.6457C101.206 28.0292 101.722 29.0101 102.466 29.5883C103.23 30.1459 104.314 30.4247 105.718 30.4247C106.4 30.4247 106.988 30.3421 107.484 30.1769C107.979 30.0117 108.382 29.7948 108.692 29.5264C109.022 29.2373 109.27 28.9172 109.435 28.5662C109.6 28.2151 109.683 27.8434 109.683 27.451C109.683 26.6663 109.425 26.0881 108.909 25.7164C108.413 25.3241 107.783 25.0247 107.019 24.8181C106.255 24.591 105.429 24.4051 104.541 24.2606C103.653 24.0954 102.827 23.8579 102.063 23.5482C101.299 23.2384 100.659 22.7944 100.143 22.2162C99.6471 21.638 99.3993 20.8223 99.3993 19.7692C99.3993 18.4269 99.8845 17.3325 100.855 16.4858C101.846 15.6185 103.24 15.1849 105.037 15.1849C106.771 15.1849 108.176 15.5772 109.249 16.3619C110.344 17.126 111.005 18.4166 111.232 20.2338H109.342C109.177 18.9948 108.702 18.1275 107.917 17.6319C107.153 17.1156 106.183 16.8575 105.006 16.8575C103.829 16.8575 102.93 17.1156 102.311 17.6319C101.691 18.1275 101.382 18.7883 101.382 19.6143C101.382 20.3371 101.629 20.8946 102.125 21.287C102.641 21.6587 103.281 21.9684 104.046 22.2162C104.81 22.4434 105.636 22.6499 106.524 22.8357C107.412 23.0216 108.238 23.29 109.002 23.6411C109.766 23.9715 110.395 24.4258 110.891 25.004C111.407 25.5822 111.665 26.3876 111.665 27.4201C111.665 28.1841 111.5 28.8656 111.17 29.4644C110.839 30.0426 110.385 30.5279 109.807 30.9203C109.229 31.3126 108.537 31.6017 107.732 31.7876C106.947 31.9941 106.08 32.0973 105.13 32.0973C104.18 32.0973 103.333 31.9528 102.59 31.6637C101.867 31.3952 101.247 31.0132 100.731 30.5176C100.215 30.022 99.8123 29.4438 99.5231 28.783C99.234 28.1222 99.0689 27.4097 99.0276 26.6457H100.917Z" fill="white"/>
<path d="M171.577 13.2701C173.69 13.2701 175.364 13.9573 176.596 15.3317C177.851 16.7061 178.479 18.5959 178.479 21.0012V31.4381H172.832V21.6454C172.832 20.4428 172.502 19.5086 171.841 18.8429C171.203 18.1557 170.344 17.8121 169.265 17.8121C168.121 17.8121 167.207 18.1664 166.525 18.8751C165.864 19.5838 165.534 20.5931 165.534 21.9031V31.4381H159.887V13.4634H165.534V16.7491C166.062 15.6753 166.844 14.827 167.879 14.2043C168.935 13.5815 170.168 13.2701 171.577 13.2701Z" fill="white"/>
<path d="M187.85 7.60061V31.4381H182.203V7.60061H187.85Z" fill="white"/>
<path d="M191.22 8.40593C191.22 7.5684 191.528 6.88119 192.145 6.34431C192.761 5.78595 193.576 5.50677 194.588 5.50677C195.601 5.50677 196.415 5.78595 197.032 6.34431C197.648 6.88119 197.956 7.5684 197.956 8.40593C197.956 9.22199 197.648 9.9092 197.032 10.4676C196.415 11.0044 195.601 11.2729 194.588 11.2729C193.576 11.2729 192.761 11.0044 192.145 10.4676C191.528 9.9092 191.22 9.22199 191.22 8.40593ZM197.395 13.4634V31.4381H191.748V13.4634H197.395Z" fill="white"/>
<path d="M212.984 13.2701C215.097 13.2701 216.77 13.9573 218.003 15.3317C219.258 16.7061 219.885 18.5959 219.885 21.0012V31.4381H214.238V21.6454C214.238 20.4428 213.908 19.5086 213.248 18.8429C212.609 18.1557 211.751 17.8121 210.672 17.8121C209.527 17.8121 208.614 18.1664 207.931 18.8751C207.271 19.5838 206.941 20.5931 206.941 21.9031V31.4381H201.294V13.4634H206.941V16.7491C207.469 15.6753 208.25 14.827 209.285 14.2043C210.342 13.5815 211.575 13.2701 212.984 13.2701Z" fill="white"/>
<path d="M241.111 21.9676C241.111 22.4185 241.056 22.9125 240.946 23.4494H228.166C228.233 24.8023 228.585 25.7794 229.223 26.3807C229.862 26.9606 230.676 27.2505 231.667 27.2505C232.503 27.2505 233.197 27.0465 233.747 26.6384C234.298 26.2304 234.661 25.7043 234.837 25.06H240.814C240.572 26.327 240.043 27.4652 239.229 28.4746C238.414 29.4624 237.38 30.2463 236.125 30.8261C234.87 31.3845 233.472 31.6636 231.931 31.6636C230.126 31.6636 228.519 31.2986 227.11 30.5684C225.723 29.8168 224.633 28.743 223.841 27.3471C223.048 25.9512 222.652 24.3191 222.652 22.4508C222.652 20.5609 223.037 18.9288 223.808 17.5544C224.6 16.1585 225.701 15.0955 227.11 14.3653C228.519 13.6137 230.126 13.2379 231.931 13.2379C233.758 13.2379 235.365 13.6029 236.752 14.3331C238.139 15.0633 239.207 16.0941 239.955 17.4255C240.726 18.7355 241.111 20.2495 241.111 21.9676ZM235.398 21.13C235.42 19.9489 235.09 19.0684 234.408 18.4886C233.747 17.8873 232.922 17.5866 231.931 17.5866C230.896 17.5866 230.038 17.8873 229.355 18.4886C228.673 19.0899 228.288 19.9704 228.2 21.13H235.398Z" fill="white"/>
<path fill-rule="evenodd" clip-rule="evenodd" d="M154.184 11.6719C153.581 11.8621 152.939 11.9647 152.273 11.9647C148.77 11.9647 145.93 9.12485 145.93 5.62172C145.93 5.03654 146.01 4.46986 146.158 3.93184C143.982 2.77589 141.568 2.00661 139.01 1.71561V8.11943C144.806 9.09138 149.38 13.6654 150.352 19.4609H156.756C156.436 16.6486 155.538 14.0117 154.184 11.6719ZM116.522 21.7675C116.522 10.6213 125.558 1.58552 136.704 1.5853V7.92822C129.061 7.92866 122.865 14.1245 122.865 21.7674C122.865 29.4106 129.061 35.6066 136.705 35.6066C144.348 35.6066 150.544 29.4107 150.544 21.7677H156.886C156.886 32.9139 147.85 41.9497 136.704 41.9497C125.558 41.9497 116.522 32.9138 116.522 21.7675Z" fill="white"/>
<circle cx="153.004" cy="4.81837" r="4.81837" fill="white"/>
<rect x="147.66" y="32.612" width="5.76634" height="12.7995" rx="2.88317" transform="rotate(-42.8979 147.66 32.612)" fill="white"/>
<path fill-rule="evenodd" clip-rule="evenodd" d="M249.098 19.952C249.098 19.952 249.098 19.952 249.098 19.952V19.9516H244.311C244.311 19.9518 244.311 19.9519 244.311 19.952H249.098ZM233.866 9.50665V4.71988H233.866V9.50665H233.866ZM248.999 18.2111C248.2 11.1895 242.627 5.6168 235.606 4.8182V9.65094C239.98 10.3845 243.432 13.8369 244.166 18.2111H248.999Z" fill="white"/>
</svg>
