<svg width="26" height="20" viewBox="0 0 26 20" fill="none" xmlns="http://www.w3.org/2000/svg">
<g clip-path="url(#clip0)">
<path d="M1.44792 2.85459H24.5533C24.7522 2.86984 24.9521 2.84426 25.1405 2.77945C25.329 2.71464 25.5018 2.612 25.6482 2.47797C25.7946 2.34393 25.9115 2.18141 25.9914 2.00059C26.0713 1.81977 26.1125 1.62457 26.1125 1.42724C26.1125 1.22991 26.0713 1.0347 25.9914 0.853887C25.9115 0.67307 25.7946 0.510544 25.6482 0.376511C25.5018 0.242479 25.329 0.139835 25.1405 0.075024C24.9521 0.0102126 24.7522 -0.0153667 24.5533 -0.000108081H1.44792C1.24902 -0.0153667 1.04908 0.0102126 0.860648 0.075024C0.672218 0.139835 0.499368 0.242479 0.35295 0.376511C0.206531 0.510544 0.0897071 0.67307 0.00981086 0.853887C-0.0700854 1.0347 -0.111328 1.22991 -0.111328 1.42724C-0.111328 1.62457 -0.0700854 1.81977 0.00981086 2.00059C0.0897071 2.18141 0.206531 2.34393 0.35295 2.47797C0.499368 2.612 0.672218 2.71464 0.860648 2.77945C1.04908 2.84426 1.24902 2.86984 1.44792 2.85459Z" fill="#294F75"/>
<path d="M1.44792 11.4273H24.5533C24.7522 11.4426 24.9521 11.417 25.1405 11.3522C25.329 11.2874 25.5018 11.1848 25.6482 11.0507C25.7946 10.9167 25.9115 10.7542 25.9914 10.5733C26.0713 10.3925 26.1125 10.1973 26.1125 9.99999C26.1125 9.80266 26.0713 9.60746 25.9914 9.42664C25.9115 9.24582 25.7946 9.0833 25.6482 8.94926C25.5018 8.81523 25.329 8.71259 25.1405 8.64778C24.9521 8.58297 24.7522 8.55739 24.5533 8.57265H1.44792C1.24902 8.55739 1.04908 8.58297 0.860648 8.64778C0.672218 8.71259 0.499368 8.81523 0.35295 8.94926C0.206531 9.0833 0.0897071 9.24582 0.00981086 9.42664C-0.0700854 9.60746 -0.111328 9.80266 -0.111328 9.99999C-0.111328 10.1973 -0.0700854 10.3925 0.00981086 10.5733C0.0897071 10.7542 0.206531 10.9167 0.35295 11.0507C0.499368 11.1848 0.672218 11.2874 0.860648 11.3522C1.04908 11.417 1.24902 11.4426 1.44792 11.4273Z" fill="#294F75"/>
<path d="M15.8866 17.1454H1.44792C1.24902 17.1301 1.04908 17.1557 0.860648 17.2205C0.672218 17.2853 0.499368 17.388 0.35295 17.522C0.206531 17.6561 0.0897071 17.8186 0.00981086 17.9994C-0.0700854 18.1802 -0.111328 18.3754 -0.111328 18.5727C-0.111328 18.7701 -0.0700854 18.9653 0.00981086 19.1461C0.0897071 19.3269 0.206531 19.4894 0.35295 19.6235C0.499368 19.7575 0.672218 19.8601 0.860648 19.925C1.04908 19.9898 1.24902 20.0154 1.44792 20.0001H15.8866C16.0855 20.0154 16.2854 19.9898 16.4739 19.925C16.6623 19.8601 16.8351 19.7575 16.9816 19.6235C17.128 19.4894 17.2448 19.3269 17.3247 19.1461C17.4046 18.9653 17.4458 18.7701 17.4458 18.5727C17.4458 18.3754 17.4046 18.1802 17.3247 17.9994C17.2448 17.8186 17.128 17.6561 16.9816 17.522C16.8351 17.388 16.6623 17.2853 16.4739 17.2205C16.2854 17.1557 16.0855 17.1301 15.8866 17.1454Z" fill="#294F75"/>
</g>
<defs>
<clipPath id="clip0">
<path d="M0 0H26V20H0V0Z" fill="white"/>
</clipPath>
</defs>
</svg>
