<svg width="35" height="35" viewBox="0 0 35 35" fill="none" xmlns="http://www.w3.org/2000/svg">
<g clip-path="url(#clip0)">
<path d="M29.3024 5.02768C27.7116 3.41984 25.8187 2.14226 23.7325 1.26837C21.6464 0.394475 19.408 -0.0584978 17.1462 -0.0645145C14.8844 -0.0705311 12.6437 0.370527 10.5529 1.23331C8.46208 2.09609 6.56241 3.36359 4.96306 4.96294C3.36371 6.56229 2.09621 8.46196 1.23343 10.5528C0.37065 12.6436 -0.070409 14.8843 -0.0643924 17.1461C-0.0583758 19.4079 0.394598 21.6462 1.26849 23.7324C2.14239 25.8186 3.41997 27.7115 5.0278 29.3023C6.61862 30.9102 8.51153 32.1877 10.5977 33.0616C12.6839 33.9355 14.9222 34.3885 17.184 34.3945C19.4459 34.4005 21.6866 33.9595 23.7774 33.0967C25.8682 32.2339 27.7678 30.9664 29.3672 29.3671C30.9665 27.7677 32.234 25.868 33.0968 23.7772C33.9596 21.6864 34.4007 19.4457 34.3946 17.1839C34.3886 14.9221 33.9356 12.6838 33.0618 10.5976C32.1879 8.5114 30.9103 6.6185 29.3024 5.02768ZM17.1208 32.2813C14.133 32.2725 11.2148 31.3785 8.73478 29.7122C6.25475 28.0459 4.32416 25.682 3.18683 22.9191C2.0495 20.1562 1.75646 17.1182 2.34472 14.1889C2.93298 11.2596 4.37615 8.57024 6.49195 6.46062C8.60775 4.351 11.3013 2.9157 14.2323 2.33602C17.1634 1.75634 20.2005 2.05826 22.9601 3.20367C25.7196 4.34908 28.0778 6.28658 29.7369 8.77147C31.3959 11.2564 32.2814 14.1772 32.2814 17.165C32.2785 21.1732 30.6849 25.0164 27.8507 27.8506C25.0165 30.6848 21.1733 32.2783 17.1651 32.2813H17.1208Z" fill="#C4C4C4"/>
<path d="M26.0799 22.1484H8.25049C7.95678 22.1484 7.6751 22.0318 7.46742 21.8241C7.25974 21.6164 7.14307 21.3347 7.14307 21.041C7.14307 20.7473 7.25974 20.4656 7.46742 20.2579C7.6751 20.0503 7.95678 19.9336 8.25049 19.9336H26.0799C26.3736 19.9336 26.6553 20.0503 26.863 20.2579C27.0707 20.4656 27.1874 20.7473 27.1874 21.041C27.1874 21.3347 27.0707 21.6164 26.863 21.8241C26.6553 22.0318 26.3736 22.1484 26.0799 22.1484Z" fill="#C4C4C4"/>
<path d="M25.7475 14.3965H21.3179C21.0242 14.3965 20.7425 14.2798 20.5348 14.0721C20.3271 13.8644 20.2104 13.5828 20.2104 13.2891C20.2104 12.9954 20.3271 12.7137 20.5348 12.506C20.7425 12.2983 21.0242 12.1816 21.3179 12.1816H25.7475C26.0413 12.1816 26.3229 12.2983 26.5306 12.506C26.7383 12.7137 26.855 12.9954 26.855 13.2891C26.855 13.5828 26.7383 13.8644 26.5306 14.0721C26.3229 14.2798 26.0413 14.3965 25.7475 14.3965Z" fill="#C4C4C4"/>
<path d="M12.4585 14.3965H8.02881C7.7351 14.3965 7.45342 14.2798 7.24574 14.0721C7.03806 13.8644 6.92139 13.5828 6.92139 13.2891C6.92139 12.9954 7.03806 12.7137 7.24574 12.506C7.45342 12.2983 7.7351 12.1816 8.02881 12.1816H12.4585C12.7522 12.1816 13.0339 12.2983 13.2415 12.506C13.4492 12.7137 13.5659 12.9954 13.5659 13.2891C13.5659 13.5828 13.4492 13.8644 13.2415 14.0721C13.0339 14.2798 12.7522 14.3965 12.4585 14.3965Z" fill="#C4C4C4"/>
</g>
<defs>
<clipPath id="clip0">
<path d="M0 0H34.33V34.33H0V0Z" fill="white"/>
</clipPath>
</defs>
</svg>
