<svg width="241" height="244" viewBox="0 0 241 244" fill="none" xmlns="http://www.w3.org/2000/svg">
<ellipse cx="120.5" cy="122.122" rx="98.2322" ry="98.228" fill="#E6CF00"/>
<mask id="mask0" mask-type="alpha" maskUnits="userSpaceOnUse" x="22" y="23" width="197" height="198">
<ellipse cx="120.41" cy="122.033" rx="98.1429" ry="98.1386" fill="#C4C4C4"/>
</mask>
<g mask="url(#mask0)">
<g filter="url(#filter0_d)">
<rect width="185.444" height="238.011" transform="matrix(0.988179 -0.153303 0.153324 0.988176 -89.1167 100.613)" fill="#F3F3F3"/>
<ellipse rx="11.8556" ry="11.8554" transform="matrix(0.988179 -0.153302 0.153329 0.988175 55.2012 112.47)" fill="#294F75"/>
<path d="M43.7175 146.244C42.3181 137.225 48.4951 128.779 57.5143 127.38C66.5335 125.98 74.9795 132.158 76.379 141.177L77.9213 151.117L45.2598 156.184L43.7175 146.244Z" fill="#294F75"/>
<line y1="-2" x2="79.3401" y2="-2" transform="matrix(0.988179 -0.153305 0.153318 0.988177 -54.2822 175.496)" stroke="#294F75" stroke-width="4"/>
<line y1="-2" x2="143.386" y2="-2" transform="matrix(0.988179 -0.153305 0.153318 0.988177 -51.9375 190.609)" stroke="#294F75" stroke-width="4"/>
<line y1="-2" x2="143.386" y2="-2" transform="matrix(0.988179 -0.153305 0.153318 0.988177 -49.5928 205.722)" stroke="#294F75" stroke-width="4"/>
<line y1="-2" x2="143.386" y2="-2" transform="matrix(0.988179 -0.153305 0.153318 0.988177 -47.2476 220.835)" stroke="#294F75" stroke-width="4"/>
<line y1="-2" x2="143.386" y2="-2" transform="matrix(0.988179 -0.153305 0.153318 0.988177 -44.9028 235.948)" stroke="#294F75" stroke-width="4"/>
</g>
<g filter="url(#filter1_d)">
<rect width="185.444" height="238.011" transform="matrix(0.988179 -0.153303 0.153324 0.988176 -69.644 110.739)" fill="#F3F3F3"/>
<ellipse rx="11.8556" ry="11.8554" transform="matrix(0.988179 -0.153302 0.153329 0.988175 74.6739 122.595)" fill="#294F75"/>
<path d="M63.1902 156.369C61.7907 147.35 67.9678 138.904 76.987 137.505C86.0062 136.106 94.4521 142.283 95.8516 151.302L97.3939 161.242L64.7325 166.309L63.1902 156.369Z" fill="#294F75"/>
<line y1="-2" x2="79.3401" y2="-2" transform="matrix(0.988179 -0.153305 0.153318 0.988177 -41.8447 140.282)" stroke="#294F75" stroke-width="4"/>
<line y1="-2" x2="79.3401" y2="-2" transform="matrix(0.988179 -0.153305 0.153318 0.988177 -39.4995 155.395)" stroke="#294F75" stroke-width="4"/>
<line y1="-2" x2="79.3401" y2="-2" transform="matrix(0.988179 -0.153305 0.153318 0.988177 -37.1543 170.508)" stroke="#294F75" stroke-width="4"/>
<line y1="-2" x2="79.3401" y2="-2" transform="matrix(0.988179 -0.153305 0.153318 0.988177 -34.8101 185.621)" stroke="#294F75" stroke-width="4"/>
<line y1="-2" x2="143.386" y2="-2" transform="matrix(0.988179 -0.153305 0.153318 0.988177 -32.4653 200.734)" stroke="#294F75" stroke-width="4"/>
<line y1="-2" x2="143.386" y2="-2" transform="matrix(0.988179 -0.153305 0.153318 0.988177 -30.1206 215.847)" stroke="#294F75" stroke-width="4"/>
<line y1="-2" x2="143.386" y2="-2" transform="matrix(0.988179 -0.153305 0.153318 0.988177 -27.7754 230.96)" stroke="#294F75" stroke-width="4"/>
<line y1="-2" x2="143.386" y2="-2" transform="matrix(0.988179 -0.153305 0.153318 0.988177 -25.4307 246.073)" stroke="#294F75" stroke-width="4"/>
</g>
<rect x="139.838" y="121.202" width="35.5223" height="25.9908" fill="#E3D8A1"/>
<path d="M108.682 153.624C109.642 141.674 119.62 132.464 131.609 132.464H181.818C194.521 132.464 204.818 142.762 204.818 155.464V229.497H102.592L108.682 153.624Z" fill="#294F75"/>
<path d="M158.466 144.594L151.968 132.465L177.094 122.935L181.426 132.465L158.466 144.594Z" fill="white"/>
<path d="M143.227 144.593L149.369 132.672L139.889 127.266L136.373 132.672L143.227 144.593Z" fill="white"/>
</g>
<rect x="114.983" y="75.0259" width="10.3968" height="23.3917" rx="5.19839" fill="#E3D8A1"/>
<path fill-rule="evenodd" clip-rule="evenodd" d="M132.944 76.3671C139.394 65.1958 135.566 50.9112 124.394 44.4615C122.603 43.4274 120.732 42.6574 118.825 42.1396C116.54 43.93 114.553 46.1792 113.012 48.8472C106.562 60.0186 110.39 74.3032 121.561 80.7528C123.353 81.787 125.224 82.5569 127.13 83.0747C129.416 81.2844 131.403 79.0352 132.944 76.3671Z" fill="#3D0F0F"/>
<rect x="120.182" y="40.3711" width="69.3118" height="87.5024" rx="34.6559" fill="#FFF3B6"/>
<path fill-rule="evenodd" clip-rule="evenodd" d="M126.08 45.5319C121.306 51.4708 118.449 59.0167 118.449 67.2299V78.6064C109.73 71.4923 107.204 58.9074 113.012 48.8472C114.553 46.1792 116.54 43.93 118.825 42.1396C120.732 42.6574 122.603 43.4274 124.394 44.4615C124.976 44.7976 125.538 45.1549 126.08 45.5319Z" fill="#531515"/>
<path fill-rule="evenodd" clip-rule="evenodd" d="M120.181 72.7486C120.135 73.479 120.112 74.2157 120.112 74.9577V93.1483C120.112 112.288 135.628 127.804 154.768 127.804C173.908 127.804 189.424 112.288 189.424 93.1483V74.9577C189.424 65.3269 185.495 56.6137 179.153 50.333C180.239 53.4543 180.829 56.8076 180.829 60.2987V93.2178C180.829 109.965 167.252 123.542 150.505 123.542C133.758 123.542 120.181 109.965 120.181 93.2178V72.7486Z" fill="#E3D8A1"/>
<path d="M141.841 107.081C144.408 109.696 151.468 113.357 159.169 107.081" stroke="#531515" stroke-width="4" stroke-linecap="round"/>
<path fill-rule="evenodd" clip-rule="evenodd" d="M130.002 62.3369C144.53 76.3491 166.911 76.7157 179.989 63.1558C182.087 60.9815 183.817 58.5811 185.185 56.0253C183.251 51.961 180.543 48.1389 177.073 44.7926C162.544 30.7804 140.164 30.4138 127.085 43.9737C124.988 46.148 123.257 48.5484 121.889 51.1042C123.824 55.1686 126.532 58.9906 130.002 62.3369Z" fill="#E3D8A1"/>
<path fill-rule="evenodd" clip-rule="evenodd" d="M197.923 76.3671C204.373 65.1958 200.546 50.9112 189.374 44.4615C187.583 43.4274 185.712 42.6575 183.805 42.1397C181.52 43.93 179.533 46.1792 177.992 48.8472C171.542 60.0186 175.37 74.3032 186.541 80.7528C188.333 81.7869 190.204 82.5568 192.11 83.0746C194.395 81.2843 196.383 79.0351 197.923 76.3671Z" fill="#531515"/>
<path fill-rule="evenodd" clip-rule="evenodd" d="M188.168 81.6097C179.648 74.461 177.224 62.0191 182.978 52.0543C184.518 49.3862 186.506 47.137 188.791 45.3467C190.128 45.7097 191.447 46.1967 192.734 46.8119C191.702 45.9462 190.581 45.1582 189.374 44.4615C187.583 43.4274 185.712 42.6574 183.805 42.1396C181.52 43.93 179.533 46.1792 177.992 48.8473C171.542 60.0186 175.37 74.3032 186.541 80.7528C187.077 81.062 187.619 81.3475 188.168 81.6097Z" fill="#3D0F0F"/>
<path fill-rule="evenodd" clip-rule="evenodd" d="M122.215 54.877C139.114 71.1751 166.026 70.6884 182.325 53.79C184.939 51.0803 187.12 48.1132 188.872 44.9737C186.714 40.1517 183.614 35.6541 179.578 31.7617C162.679 15.4637 135.767 15.9503 119.468 32.8488C116.854 35.5584 114.672 38.5255 112.921 41.665C115.079 46.4871 118.179 50.9847 122.215 54.877Z" fill="#531515"/>
<path fill-rule="evenodd" clip-rule="evenodd" d="M175.631 35.2058C160.484 25.8449 139.698 25.6643 124.513 34.5321C125.396 33.5149 126.383 32.539 127.473 31.614C139.34 21.5479 159.008 21.3169 171.403 31.098C173.015 32.3697 174.424 33.748 175.631 35.2058Z" fill="#802020"/>
<path fill-rule="evenodd" clip-rule="evenodd" d="M183.457 45.8907C165.962 64.0284 137.077 64.5508 118.938 47.0575C116.888 45.0803 115.063 42.9575 113.463 40.7212C113.278 41.0339 113.097 41.3484 112.921 41.6646C115.08 46.4867 118.179 50.9844 122.215 54.8768C139.114 71.1749 166.027 70.6882 182.325 53.7898C184.939 51.0802 187.121 48.1131 188.873 44.9737C188.353 43.8138 187.78 42.6727 187.152 41.5543C186.025 43.0559 184.793 44.5047 183.457 45.8907Z" fill="#3D0F0F"/>
<rect x="186.027" y="75.8921" width="10.3968" height="23.3917" rx="5.19839" fill="#FFF3B6"/>
<line x1="155.604" y1="85.3232" x2="155.604" y2="89.8532" stroke="#531515" stroke-width="5" stroke-linecap="round"/>
<line x1="141.742" y1="85.3232" x2="141.742" y2="89.8532" stroke="#531515" stroke-width="5" stroke-linecap="round"/>
<path d="M238 122C238 187.757 185.359 241 120.5 241C55.6414 241 3 187.757 3 122C3 56.243 55.6414 3 120.5 3C185.359 3 238 56.243 238 122Z" stroke="#E6CF00" stroke-width="6"/>
<defs>
<filter id="filter0_d" x="-116.117" y="49.1841" width="273.745" height="317.626" filterUnits="userSpaceOnUse" color-interpolation-filters="sRGB">
<feFlood flood-opacity="0" result="BackgroundImageFix"/>
<feColorMatrix in="SourceAlpha" type="matrix" values="0 0 0 0 0 0 0 0 0 0 0 0 0 0 0 0 0 0 127 0"/>
<feOffset dy="4"/>
<feGaussianBlur stdDeviation="13.5"/>
<feColorMatrix type="matrix" values="0 0 0 0 0 0 0 0 0 0 0 0 0 0 0 0 0 0 0.25 0"/>
<feBlend mode="normal" in2="BackgroundImageFix" result="effect1_dropShadow"/>
<feBlend mode="normal" in="SourceGraphic" in2="effect1_dropShadow" result="shape"/>
</filter>
<filter id="filter1_d" x="-96.644" y="59.3096" width="273.745" height="317.626" filterUnits="userSpaceOnUse" color-interpolation-filters="sRGB">
<feFlood flood-opacity="0" result="BackgroundImageFix"/>
<feColorMatrix in="SourceAlpha" type="matrix" values="0 0 0 0 0 0 0 0 0 0 0 0 0 0 0 0 0 0 127 0"/>
<feOffset dy="4"/>
<feGaussianBlur stdDeviation="13.5"/>
<feColorMatrix type="matrix" values="0 0 0 0 0 0 0 0 0 0 0 0 0 0 0 0 0 0 0.25 0"/>
<feBlend mode="normal" in2="BackgroundImageFix" result="effect1_dropShadow"/>
<feBlend mode="normal" in="SourceGraphic" in2="effect1_dropShadow" result="shape"/>
</filter>
</defs>
</svg>
