<svg width="29" height="29" viewBox="0 0 29 29" fill="none" xmlns="http://www.w3.org/2000/svg">
<path d="M24.7708 10.875H22.9583V8.45831C22.9583 3.79435 19.164 0 14.5 0C9.83598 0 6.04169 3.79435 6.04169 8.45831V10.875H4.22919C3.89523 10.875 3.625 11.1452 3.625 11.4792V26.5834C3.625 27.9162 4.70882 29 6.04169 29H22.9584C24.2912 29 25.375 27.9162 25.375 26.5833V11.4792C25.375 11.1452 25.1048 10.875 24.7708 10.875ZM16.309 23.4958C16.3278 23.6663 16.273 23.8374 16.1586 23.9655C16.0441 24.0935 15.88 24.1667 15.7084 24.1667H13.2917C13.12 24.1667 12.956 24.0935 12.8415 23.9655C12.727 23.8375 12.6722 23.6664 12.6911 23.4958L13.0722 20.0685C12.4533 19.6183 12.0834 18.9062 12.0834 18.125C12.0834 16.7922 13.1672 15.7083 14.5001 15.7083C15.8329 15.7083 16.9167 16.7921 16.9167 18.125C16.9167 18.9062 16.5468 19.6183 15.9279 20.0685L16.309 23.4958ZM19.3333 10.875H9.66669V8.45831C9.66669 5.79326 11.8349 3.625 14.5 3.625C17.1651 3.625 19.3333 5.79326 19.3333 8.45831V10.875Z" fill="#C5C5C5"/>
</svg>
