<svg width="24" height="24" viewBox="0 0 24 24" fill="none" xmlns="http://www.w3.org/2000/svg">
<g clip-path="url(#clip0)">
<path d="M23.3467 3.62787L20.3723 0.653447C19.9766 0.261087 19.4423 0.0405475 18.8851 0.0396765C18.6086 0.0366179 18.3344 0.0894034 18.0788 0.194869C17.8233 0.300335 17.5917 0.456311 17.3978 0.653447L2.2267 15.8246C2.1253 15.9458 2.05267 16.0884 2.01424 16.2416L0.062765 23.0718C0.0285336 23.1916 0.0272785 23.3185 0.0591321 23.439C0.0909857 23.5595 0.154767 23.6691 0.243749 23.7564C0.308887 23.8214 0.386196 23.8729 0.471258 23.908C0.556319 23.9431 0.647466 23.9611 0.739486 23.961C0.802209 23.9686 0.865616 23.9686 0.928339 23.961L7.75063 22.0095C7.90274 21.9619 8.04621 21.8902 8.17555 21.7971L23.3467 6.6023C23.7398 6.20714 23.9604 5.67245 23.9604 5.11509C23.9604 4.55773 23.7398 4.02303 23.3467 3.62787ZM1.76244 22.2377L3.06867 17.658L6.34211 20.9315L1.76244 22.2377ZM7.67981 20.2862L3.74539 16.3518L15.9421 4.15509L19.8765 8.08951L7.67981 20.2862ZM22.3552 5.61082L20.868 7.0823L16.9336 3.14787L18.4208 1.66066C18.5406 1.52903 18.7074 1.44987 18.8851 1.44033C18.9771 1.43976 19.0684 1.45756 19.1535 1.49269C19.2387 1.52782 19.3159 1.57957 19.3808 1.64492L22.3552 4.61935C22.4204 4.6844 22.4721 4.76167 22.5074 4.84674C22.5427 4.9318 22.5609 5.02299 22.5609 5.11509C22.5609 5.20718 22.5427 5.29837 22.5074 5.38344C22.4721 5.4685 22.4204 5.54577 22.3552 5.61082Z" fill="#294F75"/>
<path d="M0.739599 24C0.542462 23.9953 0.354308 23.9166 0.212386 23.7797C0.113844 23.6902 0.0418763 23.5753 0.00439427 23.4476C-0.0330877 23.3199 -0.0346335 23.1843 -7.29878e-05 23.0558L1.94353 16.2335C1.97883 16.0814 2.0519 15.9407 2.15599 15.8243L17.3665 0.621689C17.7705 0.22167 18.3166 -0.0018722 18.8852 4.98629e-05C19.1664 -0.00189109 19.4451 0.0528514 19.7047 0.161009C19.9642 0.269166 20.1994 0.428521 20.396 0.629558L23.3704 3.60398C23.5703 3.80157 23.7289 4.03685 23.8372 4.29619C23.9455 4.55552 24.0013 4.83377 24.0013 5.1148C24.0013 5.39584 23.9455 5.67408 23.8372 5.93342C23.7289 6.19276 23.5703 6.42803 23.3704 6.62562L8.20714 21.7968C8.06997 21.895 7.91876 21.9719 7.75862 22.025L0.94419 23.9686C0.878267 23.9906 0.809086 24.0012 0.739599 24ZM18.8852 0.0708695C18.6134 0.0708056 18.3442 0.124281 18.0931 0.228242C17.842 0.332204 17.6138 0.484614 17.4216 0.676771L2.25042 15.8479C2.15697 15.9561 2.09206 16.0859 2.06157 16.2256L0.102222 23.0794C0.0695165 23.1931 0.0675804 23.3135 0.0966114 23.4283C0.125643 23.543 0.184601 23.648 0.267468 23.7325C0.352848 23.814 0.457854 23.8721 0.572292 23.901C0.68673 23.93 0.80671 23.9289 0.920583 23.8978L7.74288 21.9541C7.88826 21.9056 8.02602 21.8368 8.15206 21.7496L23.3232 6.57841C23.7058 6.18729 23.92 5.66192 23.92 5.1148C23.92 4.56769 23.7058 4.04232 23.3232 3.6512L20.3409 0.676771C20.1501 0.484855 19.9233 0.332529 19.6735 0.228549C19.4237 0.124568 19.1558 0.0709816 18.8852 0.0708695ZM1.70747 22.2925L3.05304 17.5712L6.41304 20.9312L1.70747 22.2925ZM3.08452 17.7286L1.81763 22.1823L6.29501 20.9076L3.08452 17.7286ZM7.67993 20.341L3.65894 16.32L15.9107 4.06825L19.9239 8.08923L7.67993 20.341ZM3.7455 16.32L7.67993 20.2545L19.8216 8.08923L15.8871 4.1548L3.7455 16.32ZM20.8681 7.15284L16.8471 3.14759L18.358 1.63677C18.4974 1.49409 18.6859 1.40971 18.8852 1.40071C18.9821 1.4008 19.078 1.42035 19.1672 1.4582C19.2564 1.49605 19.3371 1.55142 19.4045 1.62103L22.3789 4.59546C22.4484 4.66293 22.5037 4.74367 22.5414 4.83287C22.5791 4.92208 22.5985 5.01795 22.5985 5.1148C22.5985 5.21166 22.5791 5.30753 22.5414 5.39673C22.5037 5.48594 22.4484 5.56667 22.3789 5.63415L20.8681 7.15284ZM16.9494 3.14759L20.8839 7.08202L22.3317 5.58693C22.3932 5.52486 22.4416 5.4511 22.474 5.37C22.5064 5.28891 22.5223 5.20213 22.5206 5.1148C22.519 4.93932 22.4516 4.77083 22.3317 4.64267L19.3494 1.66825C19.2888 1.60703 19.2164 1.55873 19.1366 1.52627C19.0569 1.49381 18.9713 1.47787 18.8852 1.47939C18.7978 1.4777 18.7111 1.49355 18.63 1.52598C18.5489 1.55842 18.4751 1.6068 18.413 1.66825L16.9494 3.14759Z" fill="#294F75"/>
</g>
<defs>
<clipPath id="clip0">
<rect width="24" height="24" fill="white"/>
</clipPath>
</defs>
</svg>
