<svg width="30" height="30" viewBox="0 0 30 30" fill="none" xmlns="http://www.w3.org/2000/svg">
<g clip-path="url(#clip0)">
<path d="M17.9154 8.12936C17.7159 8.0173 17.4801 7.98907 17.2598 8.05087C17.0396 8.11268 16.8529 8.25946 16.7408 8.45892C16.6287 8.65839 16.6005 8.8942 16.6623 9.11447C16.7241 9.33475 16.8709 9.52146 17.0704 9.63352C18.1327 10.212 18.9719 11.1279 19.4556 12.2366C19.9393 13.3453 20.0399 14.5835 19.7414 15.7557C19.4429 16.9279 18.7624 17.9672 17.8074 18.7095C16.8524 19.4518 15.6773 19.8548 14.4677 19.8548C13.2581 19.8548 12.083 19.4518 11.1279 18.7095C10.1729 17.9672 9.49242 16.9279 9.19394 15.7557C8.89546 14.5835 8.99601 13.3453 9.47971 12.2366C9.9634 11.1279 10.8027 10.212 11.865 9.63352C11.9639 9.58047 12.0513 9.50823 12.122 9.42102C12.1928 9.33381 12.2454 9.23337 12.2769 9.12559C12.3083 9.01781 12.318 8.90483 12.3053 8.79327C12.2926 8.6817 12.2578 8.57379 12.203 8.47582C12.1484 8.37727 12.0747 8.29062 11.9862 8.22096C11.8977 8.1513 11.7961 8.10005 11.6875 8.07021C11.4729 8.00683 11.242 8.03114 11.0453 8.13781C9.64961 8.8976 8.54686 10.1007 7.91125 11.5572C7.27564 13.0136 7.14339 14.6403 7.5354 16.1803C7.92741 17.7202 8.82133 19.0857 10.076 20.061C11.3306 21.0362 12.8744 21.5657 14.4634 21.5657C16.0525 21.5657 17.5963 21.0362 18.8509 20.061C20.1055 19.0857 20.9995 17.7202 21.3915 16.1803C21.7835 14.6403 21.6512 13.0136 21.0156 11.5572C20.38 10.1007 19.2773 8.8976 17.8816 8.13781L17.9154 8.12936Z" fill="#D23A3A"/>
<path d="M14.5101 12.4981C14.7342 12.4981 14.9491 12.409 15.1076 12.2506C15.2661 12.0921 15.3551 11.8771 15.3551 11.653V6.58283C15.3551 6.35871 15.2661 6.14377 15.1076 5.9853C14.9491 5.82682 14.7342 5.73779 14.5101 5.73779C14.286 5.73779 14.071 5.82682 13.9125 5.9853C13.7541 6.14377 13.665 6.35871 13.665 6.58283V11.653C13.665 11.8771 13.7541 12.0921 13.9125 12.2506C14.071 12.409 14.286 12.4981 14.5101 12.4981Z" fill="#D23A3A"/>
<path d="M14.5099 2.46192e-06C11.6399 -0.00166907 8.83382 0.847861 6.44668 2.44114C4.05953 4.03442 2.19853 6.29986 1.09907 8.95093C-0.000394917 11.602 -0.288932 14.5196 0.269955 17.3347C0.828842 20.1497 2.21005 22.7358 4.23886 24.7658C6.26767 26.7958 8.85296 28.1785 11.6677 28.739C14.4824 29.2996 17.4002 29.0127 20.0519 27.9148C22.7036 26.8169 24.9701 24.9572 26.5648 22.571C28.1595 20.1848 29.0106 17.3792 29.0106 14.5092C29.0062 10.664 27.4773 6.97737 24.759 4.25758C22.0408 1.53778 18.3551 0.00671061 14.5099 2.46192e-06ZM14.5099 26.9397C12.049 26.9413 9.64287 26.213 7.59601 24.8469C5.54915 23.4807 3.95352 21.5381 3.011 19.2648C2.06848 16.9916 1.82144 14.4898 2.30113 12.0761C2.78082 9.66245 3.96568 7.44527 5.7058 5.70515C7.44592 3.96503 9.66309 2.78017 12.0768 2.30049C14.4905 1.8208 16.9922 2.06784 19.2655 3.01036C21.5387 3.95288 23.4813 5.54851 24.8475 7.59537C26.2137 9.64223 26.942 12.0483 26.9403 14.5092C26.9358 17.8046 25.6248 20.9637 23.2946 23.2939C20.9644 25.6241 17.8053 26.9352 14.5099 26.9397Z" fill="#D23A3A"/>
</g>
<defs>
<clipPath id="clip0">
<path d="M0 0H29.01V29.01H0V0Z" fill="white"/>
</clipPath>
</defs>
</svg>
