<svg width="29" height="29" viewBox="0 0 29 29" fill="none" xmlns="http://www.w3.org/2000/svg">
<g clip-path="url(#clip0)">
<path d="M14.5047 14.0312C15.2983 14.0312 16.0741 13.7958 16.734 13.3549C17.3938 12.914 17.9081 12.2874 18.2118 11.5542C18.5155 10.821 18.595 10.0142 18.4401 9.23583C18.2853 8.45747 17.9032 7.74251 17.342 7.18135C16.7808 6.62018 16.0659 6.23803 15.2875 6.0832C14.5092 5.92838 13.7024 6.00784 12.9692 6.31154C12.236 6.61524 11.6093 7.12953 11.1684 7.78939C10.7275 8.44925 10.4922 9.22503 10.4922 10.0186C10.4922 11.0828 10.9149 12.1034 11.6674 12.8559C12.4199 13.6084 13.4405 14.0312 14.5047 14.0312ZM11.9705 10.0186C11.9705 9.51741 12.1191 9.02744 12.3976 8.61069C12.676 8.19394 13.0718 7.86912 13.5349 7.67731C13.998 7.4855 14.5075 7.43532 14.9991 7.5331C15.4907 7.63088 15.9423 7.87224 16.2967 8.22666C16.6511 8.58108 16.8925 9.03264 16.9902 9.52423C17.088 10.0158 17.0378 10.5254 16.846 10.9884C16.6542 11.4515 16.3294 11.8473 15.9127 12.1258C15.4959 12.4042 15.0059 12.5529 14.5047 12.5529C14.1712 12.554 13.8408 12.4892 13.5323 12.3624C13.2239 12.2355 12.9435 12.049 12.7073 11.8136C12.4711 11.5782 12.2836 11.2984 12.1558 10.9904C12.0279 10.6824 11.962 10.3521 11.962 10.0186H11.9705Z" fill="#294F75"/>
<path d="M18.6869 14.4461C17.8622 13.6044 16.8049 13.0283 15.6505 12.7916C14.4962 12.555 13.2974 12.6686 12.2081 13.118C11.1188 13.5673 10.1886 14.3319 9.53677 15.3135C8.88497 16.2952 8.54134 17.4493 8.54996 18.6276V20.6381C8.54996 20.833 8.62739 21.0199 8.76522 21.1578C8.90304 21.2956 9.08997 21.373 9.28489 21.373H19.6837C19.8786 21.373 20.0655 21.2956 20.2033 21.1578C20.3412 21.0199 20.4186 20.833 20.4186 20.6381V18.6698C20.4242 17.8862 20.274 17.1092 19.9767 16.3841C19.6795 15.659 19.241 15.0003 18.6869 14.4461ZM18.9487 19.9032H10.0536V18.6698C10.1036 17.5238 10.594 16.4413 11.4226 15.648C12.2512 14.8547 13.3541 14.4119 14.5012 14.4119C15.6483 14.4119 16.7511 14.8547 17.5798 15.648C18.4084 16.4413 18.8988 17.5238 18.9487 18.6698V19.9032Z" fill="#294F75"/>
<path d="M14.5049 2.46107e-06C11.6358 -0.00166849 8.83077 0.847569 6.44445 2.4403C4.05813 4.03303 2.19777 6.29769 1.09869 8.94784C-0.000397474 11.598 -0.288835 14.5146 0.269859 17.3287C0.828554 20.1428 2.20928 22.728 4.2374 24.7573C6.26551 26.7866 8.8499 28.1688 11.6637 28.7291C14.4774 29.2895 17.3942 29.0027 20.045 27.9052C22.6958 26.8076 24.9615 24.9486 26.5556 22.5632C28.1498 20.1778 29.0006 17.3733 29.0006 14.5042C28.9962 10.6603 27.4678 6.97497 24.7505 4.25611C22.0332 1.53725 18.3488 0.00670829 14.5049 2.46107e-06ZM14.5049 26.9304C12.0448 26.9321 9.63954 26.204 7.59339 24.8383C5.54724 23.4726 3.95215 21.5307 3.00996 19.2582C2.06777 16.9857 1.82081 14.4848 2.30033 12.072C2.77985 9.65912 3.96431 7.44271 5.70383 5.70319C7.44335 3.96367 9.65976 2.77921 12.0726 2.29969C14.4855 1.82017 16.9864 2.06713 19.2588 3.00932C21.5313 3.95151 23.4732 5.5466 24.8389 7.59275C26.2046 9.63891 26.9327 12.0442 26.931 14.5042C26.9266 17.7985 25.6159 20.9565 23.2865 23.2859C20.9572 25.6153 17.7991 26.9259 14.5049 26.9304Z" fill="#294F75"/>
</g>
<defs>
<clipPath id="clip0">
<path d="M0 0H29V29H0V0Z" fill="white"/>
</clipPath>
</defs>
</svg>
