<svg width="35" height="35" viewBox="0 0 35 35" fill="none" xmlns="http://www.w3.org/2000/svg">
<g clip-path="url(#clip0)">
<path d="M17.165 0C13.7701 0 10.4514 1.00671 7.62864 2.89282C4.80587 4.77894 2.60579 7.45974 1.30662 10.5962C0.00743727 13.7327 -0.332487 17.184 0.329828 20.5137C0.992144 23.8434 2.62695 26.9019 5.02752 29.3025C7.42809 31.7031 10.4866 33.3379 13.8163 34.0002C17.146 34.6625 20.5973 34.3226 23.7338 33.0234C26.8703 31.7242 29.5511 29.5241 31.4372 26.7014C33.3233 23.8786 34.33 20.5599 34.33 17.165C34.33 12.6126 32.5216 8.24657 29.3025 5.02751C26.0834 1.80845 21.7175 0 17.165 0V0ZM17.165 32.3238C14.1669 32.3238 11.2361 31.4348 8.74321 29.7691C6.25035 28.1034 4.3074 25.736 3.16007 22.966C2.01273 20.1961 1.71253 17.1482 2.29744 14.2077C2.88235 11.2671 4.32609 8.56608 6.44609 6.44608C8.56609 4.32608 11.2671 2.88234 14.2077 2.29743C17.1482 1.71253 20.1961 2.01272 22.966 3.16006C25.736 4.30739 28.1034 6.25034 29.7691 8.7432C31.4348 11.2361 32.3238 14.1669 32.3238 17.165C32.321 21.1845 30.723 25.0386 27.8808 27.8808C25.0386 30.723 21.1845 32.321 17.165 32.3238Z" fill="#C4C4C4"/>
<path d="M17.1648 19.3107C15.7802 19.3084 14.4184 19.6625 13.2102 20.3389C12.0021 21.0153 10.9884 21.9912 10.2666 23.1728C10.1962 23.2855 10.1486 23.411 10.1267 23.5421C10.1047 23.6732 10.1088 23.8073 10.1387 23.9368C10.1686 24.0663 10.2237 24.1886 10.3009 24.2969C10.378 24.4051 10.4758 24.497 10.5885 24.5675C10.7012 24.6379 10.8267 24.6855 10.9577 24.7074C11.0888 24.7294 11.223 24.7253 11.3525 24.6954C11.482 24.6655 11.6043 24.6104 11.7125 24.5332C11.8207 24.4561 11.9127 24.3583 11.9831 24.2456C12.5195 23.3501 13.2787 22.6089 14.1868 22.0942C15.095 21.5796 16.121 21.3091 17.1648 21.3091C18.2086 21.3091 19.2347 21.5796 20.1428 22.0942C21.0509 22.6089 21.8102 23.3501 22.3465 24.2456C22.4888 24.4747 22.7162 24.6378 22.9787 24.6992C23.2413 24.7605 23.5175 24.7151 23.7465 24.5728C23.9756 24.4306 24.1387 24.2031 24.2001 23.9406C24.2614 23.678 24.216 23.4018 24.0737 23.1728C23.3495 21.9911 22.3337 21.0153 21.1239 20.339C19.9141 19.6627 18.5508 19.3086 17.1648 19.3107Z" fill="#C4C4C4"/>
<path d="M15.0195 13.6569C15.1049 13.4051 15.0867 13.1297 14.969 12.8913C14.8513 12.6528 14.6437 12.4709 14.3919 12.3856C14.1401 12.3002 13.8647 12.3184 13.6263 12.4361C13.3879 12.5538 13.206 12.7614 13.1206 13.0132C12.9596 13.4827 12.6559 13.8903 12.252 14.1788C11.8481 14.4673 11.3641 14.6224 10.8677 14.6224C10.3713 14.6224 9.88734 14.4673 9.48341 14.1788C9.07948 13.8903 8.77579 13.4827 8.6148 13.0132C8.58141 12.877 8.51999 12.7493 8.43447 12.6383C8.34896 12.5272 8.24122 12.4352 8.11814 12.368C7.99506 12.3009 7.85935 12.2602 7.71965 12.2485C7.57996 12.2368 7.43935 12.2544 7.30682 12.3C7.17428 12.3457 7.05273 12.4185 6.94991 12.5138C6.84709 12.6091 6.76527 12.7248 6.70967 12.8535C6.65407 12.9821 6.62591 13.121 6.62698 13.2612C6.62806 13.4014 6.65835 13.5398 6.71593 13.6676C7.01202 14.5335 7.57144 15.2852 8.31589 15.8174C9.06035 16.3496 9.95258 16.6357 10.8677 16.6357C11.7828 16.6357 12.6751 16.3496 13.4195 15.8174C14.164 15.2852 14.7234 14.5335 15.0195 13.6676V13.6569Z" fill="#C4C4C4"/>
<path d="M27.0457 12.3802C26.7925 12.2951 26.5158 12.314 26.2764 12.4326C26.0371 12.5513 25.8546 12.7601 25.7691 13.0132C25.6081 13.4827 25.3044 13.8903 24.9004 14.1788C24.4965 14.4673 24.0125 14.6224 23.5161 14.6224C23.0198 14.6224 22.5358 14.4673 22.1318 14.1788C21.7279 13.8903 21.4242 13.4827 21.2632 13.0132C21.2298 12.877 21.1684 12.7493 21.0829 12.6383C20.9974 12.5272 20.8897 12.4352 20.7666 12.368C20.6435 12.3009 20.5078 12.2602 20.3681 12.2485C20.2284 12.2368 20.0878 12.2544 19.9553 12.3C19.8227 12.3457 19.7012 12.4185 19.5983 12.5138C19.4955 12.6091 19.4137 12.7248 19.3581 12.8535C19.3025 12.9821 19.2743 13.121 19.2754 13.2612C19.2765 13.4014 19.3068 13.5398 19.3644 13.6676C19.6633 14.5323 20.2243 15.2822 20.9694 15.813C21.7146 16.3438 22.6067 16.6291 23.5215 16.6291C24.4364 16.6291 25.3285 16.3438 26.0736 15.813C26.8187 15.2822 27.3798 14.5323 27.6787 13.6676C27.7638 13.4144 27.7449 13.1377 27.6263 12.8983C27.5076 12.659 27.2988 12.4765 27.0457 12.391V12.3802Z" fill="#C4C4C4"/>
</g>
<defs>
<clipPath id="clip0">
<path d="M0 0H34.33V34.33H0V0Z" fill="white"/>
</clipPath>
</defs>
</svg>
