<svg width="19" height="19" viewBox="0 0 19 19" fill="none" xmlns="http://www.w3.org/2000/svg">
<path d="M18.7952 17.8095L14.4014 13.4157C15.6489 11.9146 16.2699 9.99051 16.1353 8.04336C16.0008 6.09622 15.121 4.27584 13.6789 2.96065C12.2367 1.64545 10.3432 0.936614 8.39196 0.981501C6.44069 1.02639 4.58178 1.82154 3.20166 3.20166C1.82154 4.58179 1.02639 6.4407 0.981501 8.39196C0.936614 10.3433 1.64545 12.2368 2.96064 13.6789C4.27584 15.121 6.09622 16.0008 8.04336 16.1354C9.9905 16.27 11.9146 15.6489 13.4157 14.4014L17.8095 18.7953C17.9415 18.9194 18.1167 18.9872 18.2979 18.9844C18.4791 18.9816 18.652 18.9084 18.7802 18.7802C18.9083 18.6521 18.9815 18.4791 18.9843 18.2979C18.9872 18.1168 18.9193 17.9416 18.7952 17.8095ZM2.39966 8.57618C2.39966 7.35458 2.7619 6.16041 3.44059 5.14469C4.11927 4.12897 5.08391 3.33731 6.21253 2.86982C7.34114 2.40233 8.58303 2.28002 9.78116 2.51834C10.9793 2.75666 12.0798 3.34492 12.9436 4.20872C13.8074 5.07252 14.3957 6.17308 14.634 7.3712C14.8723 8.56933 14.75 9.81122 14.2825 10.9399C13.8151 12.0685 13.0234 13.0331 12.0077 13.7118C10.9919 14.3905 9.79778 14.7527 8.57618 14.7527C6.93849 14.7514 5.36827 14.1002 4.21025 12.9421C3.05223 11.7841 2.40104 10.2139 2.39966 8.57618Z" fill="#CDC0C3"/>
</svg>
