<svg width="43" height="43" viewBox="0 0 43 43" fill="none" xmlns="http://www.w3.org/2000/svg">
<path d="M22.7456 29.7165L22.7456 15.3799L28.8558 21.6433C29.3442 22.1439 30.1455 22.1439 30.6338 21.6433C30.7499 21.5246 30.842 21.3835 30.9048 21.2283C30.9677 21.073 31 20.9065 31 20.7385C31 20.5704 30.9677 20.4039 30.9048 20.2486C30.842 20.0934 30.7499 19.9523 30.6338 19.8336L22.3825 11.3754C22.2666 11.2564 22.129 11.162 21.9776 11.0976C21.8261 11.0332 21.6637 11 21.4997 11C21.3357 11 21.1734 11.0332 21.0219 11.0976C20.8704 11.162 20.7328 11.2564 20.617 11.3754L12.3656 19.8336C12.2497 19.9524 12.1578 20.0935 12.095 20.2487C12.0323 20.404 12 20.5704 12 20.7385C12 20.9065 12.0323 21.0729 12.095 21.2282C12.1578 21.3834 12.2497 21.5245 12.3656 21.6433C12.4816 21.7621 12.6192 21.8564 12.7706 21.9207C12.9221 21.985 13.0844 22.0181 13.2484 22.0181C13.4123 22.0181 13.5746 21.985 13.7261 21.9207C13.8776 21.8564 14.0152 21.7621 14.1311 21.6433L20.2414 15.3799L20.2414 29.7165C20.2414 30.4224 20.8048 31 21.4935 31C22.1821 31 22.7456 30.4224 22.7456 29.7165Z" fill="#79AF3A"/>
<rect x="1" y="1" width="41" height="41" rx="5" stroke="#79AF3A" stroke-width="2"/>
</svg>
