<svg width="27" height="26" viewBox="0 0 27 26" fill="none" xmlns="http://www.w3.org/2000/svg">
<g style="mix-blend-mode:multiply">
<g clip-path="url(#clip0)">
<path d="M11.5 13.7682C14.8433 13.7682 17.5538 10.7133 17.5538 6.94495C17.5538 1.71927 14.8434 0.121765 11.5 0.121765C8.15655 0.121765 5.44629 1.71927 5.44629 6.94495C5.44636 10.7133 8.15662 13.7682 11.5 13.7682Z" fill="#C5C5C5"/>
<path d="M24.868 23.8111L21.8138 17.1858C21.6741 16.8826 21.4287 16.6312 21.1232 16.478L16.3833 14.102C16.2788 14.0497 16.1522 14.0599 16.0583 14.1284C14.7176 15.1048 13.1414 15.6209 11.5001 15.6209C9.85849 15.6209 8.28236 15.1048 6.94175 14.1284C6.84752 14.0599 6.72095 14.0497 6.61643 14.102L1.87684 16.478C1.57125 16.6312 1.3261 16.8825 1.18627 17.1858L-1.86792 23.8111C-2.07849 24.2678 -2.03533 24.7904 -1.75244 25.2094C-1.46968 25.6283 -0.991136 25.8782 -0.472272 25.8782H23.4722C23.9911 25.8782 24.4698 25.6281 24.7525 25.2093C25.0353 24.7904 25.0786 24.2677 24.868 23.8111Z" fill="#C5C5C5"/>
</g>
</g>
<defs>
<clipPath id="clip0">
<rect width="27" height="26" fill="white"/>
</clipPath>
</defs>
</svg>
