<svg width="35" height="35" viewBox="0 0 35 35" fill="none" xmlns="http://www.w3.org/2000/svg">
<path d="M16.0135 17.8581L16.7188 17.436L17.5176 17.8759L20.439 19.4848L22.5074 22.6022C22.6547 22.8243 22.5678 23.1256 22.3247 23.2349C22.269 23.26 22.2086 23.273 22.1475 23.273H16.8498L11.8626 23.273C11.7948 23.273 11.7279 23.2586 11.6661 23.2308C11.4035 23.1126 11.304 22.7908 11.4541 22.545L13.3385 19.4589L16.0135 17.8581ZM17.5176 16.1241L16.7188 16.564L16.0135 16.1419L13.3385 14.541L11.4541 11.4548C11.3039 11.209 11.4034 10.8872 11.6661 10.769C11.7279 10.7412 11.7948 10.7268 11.8626 10.7268L16.8498 10.7268L22.1475 10.7268C22.2086 10.7268 22.269 10.7398 22.3247 10.7648C22.5678 10.8742 22.6548 11.1755 22.5074 11.3976L20.439 14.5151L17.5176 16.1241Z" stroke="#E6CF00" stroke-width="2"/>
<path d="M17.18 2.9134e-06C13.7837 -0.00197515 10.4631 1.00335 7.63814 2.88881C4.81324 4.77427 2.61096 7.45516 1.30987 10.5924C0.00877786 13.7296 -0.332672 17.1823 0.328706 20.5136C0.990085 23.8449 2.62458 26.9052 5.02545 29.3075C7.42632 31.7098 10.4857 33.346 13.8166 34.0094C17.1476 34.6727 20.6004 34.3332 23.7384 33.034C26.8764 31.7347 29.5585 29.534 31.4456 26.7102C33.3328 23.8864 34.34 20.5663 34.34 17.17C34.3347 12.6196 32.5254 8.25692 29.3087 5.03835C26.092 1.81979 21.7304 0.00794123 17.18 2.9134e-06V2.9134e-06ZM17.18 31.88C14.2678 31.882 11.4205 31.0201 8.99825 29.4034C6.57603 27.7867 4.68778 25.4879 3.57242 22.7977C2.45706 20.1076 2.16471 17.1471 2.73236 14.2907C3.30002 11.4344 4.70217 8.81063 6.7614 6.75139C8.82063 4.69216 11.4444 3.29002 14.3007 2.72236C17.1571 2.1547 20.1176 2.44705 22.8077 3.56241C25.4979 4.67777 27.7967 6.56602 29.4134 8.98825C31.0301 11.4105 31.892 14.2578 31.89 17.17C31.8847 21.0697 30.3332 24.8082 27.5757 27.5657C24.8182 30.3232 21.0797 31.8747 17.18 31.88V31.88Z" fill="#E6CF00"/>
</svg>
